<svg xmlns="http://www.w3.org/2000/svg" viewBox="0 0 73.78 35.85"><defs><style>.cls-1,.cls-2{fill:#4d9ad4;}.cls-2{stroke:#4d9ad4;stroke-miterlimit:10;}</style></defs><title>arrow</title><g id="Layer_2" data-name="Layer 2"><g id="Layer_1-2" data-name="Layer 1"><path class="cls-1" d="M2.71,10.44c0,.13,0,.27,0,.44.35-.13.66-.22,1-.35.09.13.13.22.22.35a.29.29,0,0,0,.17.09.27.27,0,0,1,.31.22.57.57,0,0,1,0,.48,2,2,0,0,0-.31.49c-.17.31-.35.66-.52,1s0,.44.35.53c.09,0,.22.09.26.17s.27.36.4.58a6.75,6.75,0,0,0,1.23,1.27,9.37,9.37,0,0,0,2.64,1.76,5.35,5.35,0,0,0,.88.31c.18.09.4.13.57.22a2.76,2.76,0,0,0,.53.18,4.65,4.65,0,0,1,.88.13s.09,0,.13,0a2.13,2.13,0,0,0,.31.18c.48.09,1,.13,1.45.26a3.93,3.93,0,0,0,.75.09,5.75,5.75,0,0,1,.92.18h.36c.17,0,.35.13.53.17a7.47,7.47,0,0,1,1.36.13c.31.05.57,0,.88.05s.88,0,1.32.09,1.14,0,1.76.08a15,15,0,0,0,1.5.18s.13,0,.17.05v0L21,20.25a4.74,4.74,0,0,0,.84.05,6.59,6.59,0,0,1,1.67.09.62.62,0,0,0,.26-.09.74.74,0,0,1,.62,0c-.09.09-.13.22-.18.26-.22.05-.39.05-.57.09a1.71,1.71,0,0,1-.48.09,19.81,19.81,0,0,1-3.61-.09A10.54,10.54,0,0,0,18,20.56a6.37,6.37,0,0,1-1.85,0c-.49-.05-1-.13-1.5-.22-.18-.05-.35-.05-.53-.09L13,20c-.7-.18-1.45-.31-2.15-.49a1.31,1.31,0,0,0-.71,0c-.09.05-.13.13-.22.22a1,1,0,0,1,.57.14,1.76,1.76,0,0,0,.66.08.51.51,0,0,1,0,.22c.35.05.75.05,1.1.13a12.06,12.06,0,0,0,2.51.36s.09,0,.09,0c.22.22.48.13.7.13h.84a13.68,13.68,0,0,0,1.49.22c.66.09,1.28.13,1.94.22h.48c.09.05.22,0,.31.05a1,1,0,0,0,.71.13,2.19,2.19,0,0,1,.92,0,5,5,0,0,0,.75,0c.35,0,.7-.13,1.05.09h.09c.44,0,.88,0,1.28,0,.66,0,1.36,0,2,0a6.46,6.46,0,0,0,.88,0,8.85,8.85,0,0,1,1.54-.09,8.34,8.34,0,0,0,1.5-.09l1.32-.13c.31-.05.62-.05.92-.09a5.23,5.23,0,0,1,1.85,0h.22a8,8,0,0,1,1.06-.22,3.24,3.24,0,0,0,1.14-.18s0,0,.09,0a.23.23,0,0,0,.35.17,3.13,3.13,0,0,0,.93-.17,3.7,3.7,0,0,1,1.36-.27,3.9,3.9,0,0,1,1-.35,1.08,1.08,0,0,1,.75-.13c.09,0,.18,0,.31,0a11.8,11.8,0,0,1,2.77-.53,1.36,1.36,0,0,0,.4,0,1.24,1.24,0,0,0,.79-.31.59.59,0,0,1,.53-.17c.35,0,.66-.13,1-.09a.06.06,0,0,0,.08,0,.89.89,0,0,1,.84-.26.26.26,0,0,0,.18-.05c.48-.17,1-.17,1.49-.39s.75-.18,1.1-.31a6.22,6.22,0,0,1,2.2-.4.92.92,0,0,0,.75-.17c.31-.09.62-.09.79-.36.05-.08.22-.13.27-.08s.22-.05.3-.05.22-.13.36-.17.17-.14.26-.18l-.09-.09s0-.09-.08-.13c.79-.18,1.49-.7,2.33-.57a1.55,1.55,0,0,1,.79-.53,10.7,10.7,0,0,0,1.23-.57c0-.05-.13-.05-.22,0-.35.09-.75.17-1.14.26a8.71,8.71,0,0,0-1.72.53l-.35.13s-.13-.09-.27-.13a1.56,1.56,0,0,0,.36-.13c.17-.05.39-.09.57-.13a2.25,2.25,0,0,1,.48-.22c.4-.18.8-.31,1.24-.49.13,0,.3-.17.44-.17a1,1,0,0,0,.52-.18,1.08,1.08,0,0,1,.75-.13c.31,0,.57.13.84.17a.54.54,0,0,1,.35.22c.18.31.22.22.48.14a2.81,2.81,0,0,0,.62-.18c.35-.18.7,0,1.1-.09a.21.21,0,0,1,.26.09s0,.18,0,.31.22.17.31.13c.35,0,.35.22.44.44-.83.31-.83.31-.92.62h.09c.22-.22.44,0,.66,0s.13.26,0,.26a3.71,3.71,0,0,0-.84.48,1.87,1.87,0,0,0-.62.49V17c-.44.09-.7.49-1.18.53-.05,0-.05.05-.09.09a3.64,3.64,0,0,1-.53.31,5.86,5.86,0,0,0-1.23.53l-.35.13c-.66.26-1.37.35-2,.66s-1.37.48-2.07.7l-5.06,1.32a1,1,0,0,1-.71.05.79.79,0,0,0-.57,0,3.06,3.06,0,0,1-1.1.18,1.18,1.18,0,0,0-.31.08.63.63,0,0,1-.17.14l-1.1.13a.71.71,0,0,0-.31,0,3.76,3.76,0,0,1-.62.18,9.07,9.07,0,0,1-1.54.22,7,7,0,0,0-.75.17l-.88.14c-.88.13-1.71.31-2.59.39l-3,.4a4.93,4.93,0,0,1-1.58,0c-.09,0-.18,0-.27,0l-2.73.26c-.13.05-.3,0-.48.05-.57,0-1.14.09-1.72.17a1.81,1.81,0,0,0-.22,0c1.15-.18,2.25-.31,3.35-.48a.72.72,0,0,0,.44-.09,1.16,1.16,0,0,1,.53-.22c.48-.05.92-.13,1.4-.18a.32.32,0,0,1,0-.13c-.27,0-.49,0-.71,0a2.68,2.68,0,0,1-1,.09h0a1.57,1.57,0,0,1-.48.09H34a1,1,0,0,0-.35,0,3.74,3.74,0,0,0-.66.09c-.36,0-.71,0-1.06,0a9.48,9.48,0,0,0-1.19.05,9.87,9.87,0,0,1-1.63,0c-.61.05-1.23.05-1.85.05-.13,0-.3-.09-.48-.09h-2.9c-.44,0-.93.09-1.37.09-1-.05-2-.05-2.95-.14s-2.15-.26-3.25-.39l-2.16-.27c-.7-.13-1.41-.21-2.16-.35,0,0-.08,0-.13,0l-.39-.13c-.14-.05-.31.09-.44-.05s-.22.09-.36.14a.91.91,0,0,1-.35,0,.41.41,0,0,0,.05-.18,3.1,3.1,0,0,0-.8-.35c-.7-.26-1.4-.53-2.06-.84a4.31,4.31,0,0,1-.71-.3c-.53-.27-1-.57-1.58-.84L4.33,19a22.3,22.3,0,0,1-2.15-1.85,5.22,5.22,0,0,0-.71-.7,4.11,4.11,0,0,0,.27.48,6.6,6.6,0,0,0,1.58,1.54c.31.27.49.66.93.75l.08.09s.09.13.14.13c.26.18.57.31.92.53-.18,0-.31.13-.35.13a4.08,4.08,0,0,1-.75-.39C3.85,19.37,3.41,19,3,18.58c0,0-.13,0-.26-.09.08.36.39.44.57.66s.44.27.57.53c-.53,0-.75-.13-.88-.53a1.63,1.63,0,0,0-.35-.39c-.22-.22-.44-.4-.62-.62,0,0,0-.09-.13-.17a5.15,5.15,0,0,1,.53.13c-.14-.27-.35-.31-.58-.49a.65.65,0,0,0,.05.31,1.19,1.19,0,0,1-.26-.22A7.4,7.4,0,0,1,.28,15.59,4.66,4.66,0,0,1,0,13.43a1.53,1.53,0,0,1,0-.44,3.87,3.87,0,0,0,.4-1c0-.09.09-.22.18-.26s.26-.31.39-.53.18-.35.31-.57c0,.17.09.22.13.35.09-.09.14-.18.22-.26.05.08.09.22.13.3A2,2,0,0,1,2.71,10.44ZM1.34,15.55a.12.12,0,0,0,0,.22,8,8,0,0,0,.61.74c.27.31.53.62.84.93l2.07,1.67a5.86,5.86,0,0,0,.57.31c0-.09,0-.13,0-.18a5,5,0,0,1,.7.4,8.41,8.41,0,0,0,2,1,19.47,19.47,0,0,0,3.48,1.06c.7.17,1.4.22,2.15.35a.67.67,0,0,0-.44-.31L12,21.49a.18.18,0,0,0-.22,0,1.17,1.17,0,0,1-.84-.13c-.57-.27-1.14-.36-1.71-.58a6.33,6.33,0,0,1-1.54-.66,2.83,2.83,0,0,0-.66-.3c-.13-.05-.22-.14-.35-.18-.44-.31-.88-.62-1.37-.93-.26-.17-.57-.3-.92-.48.09.31.39.35.53.62-.09-.05-.18-.05-.22-.09A8.38,8.38,0,0,1,4,18.19c-.05,0-.09-.09-.14-.09a5.16,5.16,0,0,1-1.63-1.59C2,16.16,1.65,15.85,1.34,15.55Zm3.26,4.7a3.1,3.1,0,0,1,.26.18v0c-.09,0-.13,0-.22-.08A.39.39,0,0,0,4.6,20.25Zm.61-1.18a.63.63,0,0,0,.14.17C5.26,19.24,5.17,19.24,5.21,19.07Zm.09,1.67c.09,0,.13.09.22.13a0,0,0,0,0,0,0,.52.52,0,0,1-.18-.13Zm.35-.31c.09,0,.14.09.18.09s0,0,0,.09-.09,0-.09-.05,0,0,0-.09Zm.14.62c.08,0,.13,0,.17,0a6.89,6.89,0,0,0,1.19.53,7.47,7.47,0,0,0,1.5.53.21.21,0,0,1,.17.09.74.74,0,0,0,.57.21,1,1,0,0,1,.66.23.22.22,0,0,1-.3.08,13.13,13.13,0,0,1-1.5-.44c-.48-.17-1-.39-1.45-.61-.31-.14-.62-.35-.93-.49C5.87,21.18,5.83,21.13,5.79,21.05Zm.39-.18a.5.5,0,0,1,.49.18l-.09.08Zm.75.31c.66.26,1.36.53,2,.84,0,0,0,0,0,.08-.66-.26-1.36-.57-2-.83C6.89,21.22,6.89,21.18,6.93,21.18Zm.92,0a1.26,1.26,0,0,1,1.06.35C8.47,21.62,8.38,21.57,7.85,21.18Zm1.24.39a1.29,1.29,0,0,1,.26.05v.09C9.26,21.71,9.17,21.75,9.09,21.57Zm.08.58h.18s0,0,0,0A.19.19,0,0,1,9.17,22.15Zm.44-.44c.05,0,.09,0,.18,0s0,0,0,0H9.61Zm1.85,1.05c.27.09.49,0,.71.22A.34.34,0,0,0,12,23a3.88,3.88,0,0,1,.44.13v.13a4.57,4.57,0,0,1-2.25-.39.79.79,0,0,1,.62-.09,1.9,1.9,0,0,0,.88.09C11.59,22.9,11.55,22.85,11.46,22.76Zm-.75-.17h.09s0,0,0,0a.12.12,0,0,0-.09.05A.12.12,0,0,0,10.71,22.59Zm.4.09h.13v.08h-.09A.12.12,0,0,0,11.11,22.68Zm.75-.44c.31,0,.66.13,1,.17v.09a3.61,3.61,0,0,1-1.15-.22C11.73,22.24,11.81,22.19,11.86,22.24Zm.92.79c.09,0,.22.08.31.13v0c-.09,0-.22,0-.31-.09Zm.4-.49a1.54,1.54,0,0,1,.92.14A1.37,1.37,0,0,1,13.18,22.54Zm1.71.31a1.11,1.11,0,0,1,.89.09A1,1,0,0,1,14.89,22.85Zm.71.71a9.48,9.48,0,0,1,1.06,0,13.68,13.68,0,0,1,1.49.22h.22a.64.64,0,0,1,.49,0,1.1,1.1,0,0,0,1.05-.18s.05.05.09.05,0,.09,0,.13.17-.09.22,0a1.28,1.28,0,0,0,1,.17c.18.05.36.05.49.09A40.73,40.73,0,0,1,15.6,23.56Zm.84-3.7c-.05,0-.09,0-.14.09s.05,0,.09,0l.05,0Zm2.77-.13a2,2,0,0,0-1.59.26c.36,0,.71.18,1-.09A2.25,2.25,0,0,1,19.21,19.73ZM18,23.16c.48,0,1,0,1.54,0l-.22.22C18.86,23.2,18.37,23.34,18,23.16Zm4.13.84.09.08a.14.14,0,0,1-.09.05l0-.05S22.11,24,22.11,24Zm.44.13c.31-.09.31-.09.53,0A2.55,2.55,0,0,0,22.55,24.13Zm8.32-.31a37.33,37.33,0,0,1-7.09.26Zm-6.25-.31h.26v.09c-.08,0-.17,0-.26,0Zm.44-3.3c0,.26,0,.26-.26.22.08-.18.08-.18.3-.18Zm.62,0c-.22,0-.4,0-.58.08C25.24,20,25.37,20,25.68,20.17Zm-.18,3c0,.18.09.18,0,.22l0,0a.1.1,0,0,1-.09-.08C25.41,23.29,25.46,23.29,25.5,23.16ZM27.08,20c-.35.26-.7.17-1.1.17A1.22,1.22,0,0,1,27.08,20Zm-.52.57a3.26,3.26,0,0,1,1.32,0c-.09,0-.14.09-.18.09-.31,0-.62.13-.88.17S26.6,20.69,26.56,20.52Zm1.49,2.9c0,.14-.08.27-.26.31C27.83,23.47,27.83,23.47,28.05,23.42Zm2-3v.08c-.08,0-.17.05-.31.05v-.09A.85.85,0,0,1,30,20.39Zm1.81-.14a.15.15,0,0,1,.13.05v0c-.09,0-.13.05-.22.05v-.05S31.79,20.25,31.84,20.25Zm.22-.13h.57c0,.18-.18.18-.31.18S32.19,20.21,32.06,20.12Zm1.45,0v.09h-.22v-.05C33.38,20.12,33.42,20.08,33.51,20.08Zm1.67.48c-.09.27-.09.27-.48.18C34.87,20.69,35,20.61,35.18,20.56Zm1.06-.88a8.67,8.67,0,0,0-.84.22C35.62,19.55,35.93,19.64,36.24,19.68Zm.57-.09c.13,0,.22,0,.22.18-.22,0-.4.13-.66.05C36.55,19.73,36.68,19.64,36.81,19.59Zm-.4,1c.18-.09.31-.18.49,0A2,2,0,0,0,36.41,20.61Zm.75,2v.09h.4v-.09Zm1.1-2.38c-.13.22-.13.22-.44.18C38,20.34,38.09,20.25,38.26,20.21Zm.18-.66c-.09.13-.22.13-.44.13C38.17,19.55,38.26,19.46,38.44,19.55Zm-.13,2.95a.49.49,0,0,0-.22,0l0,.05a.44.44,0,0,0,.22-.05Zm2.33-3.21a2.09,2.09,0,0,1-.49.08v0C40.37,19.2,40.37,19.2,40.64,19.29ZM45.92,19a.14.14,0,0,0,0,.09c-.13,0-.26.09-.44.13v-.13A1.11,1.11,0,0,0,45.92,19Zm8.89-2c-.05.13-.05.18-.09.27C54.63,17.17,54.63,17.17,54.81,17Zm.83-1.23s0,0,0,0-.09.05-.13.09,0,0-.05-.09S55.6,15.81,55.64,15.81ZM64,13.57l.26.13s0,.09-.09.09a.84.84,0,0,0-.22-.14C64,13.61,64,13.61,64,13.57Zm.48-.27c-.13.18-.13.18-.35.09A1.5,1.5,0,0,1,64.49,13.3ZM64.31,17V17h.09l0,0a.58.58,0,0,1-.27.09v0Zm1.37-.66c0,.31,0,.31-.4.31A2.22,2.22,0,0,0,65.68,16.29Zm.09-1.76c0,.05.08.09.13.09l-.05.05s-.08-.05-.13-.05S65.72,14.58,65.77,14.53Z"/><path class="cls-2" d="M70,12.2a.39.39,0,0,1,.3-.13c.06,0,.13,0,.18,0a.4.4,0,0,0,.16-.08,1.14,1.14,0,0,0,.33-.07,1.35,1.35,0,0,0,.35-.14c0,.13,0,.2,0,.28a.17.17,0,0,0,.23-.09s.07-.07.11-.07.25,0,.37.08.16.07.12.19,0,0,0,0a.52.52,0,0,1,.1.11c0,.07-.08.11-.15.1s-.17,0-.22.15a1,1,0,0,0,.2.22.15.15,0,0,0,0,.13,1.53,1.53,0,0,1,.25.16,1.14,1.14,0,0,1,0,.24l-.19,0c-.07,0-.12,0-.15,0a.71.71,0,0,1-.28.38s0,0,0,.06a4,4,0,0,1-.2.46c0,.07,0,.08,0,.16s0,.16-.09.18-.13.08-.16.16a13.26,13.26,0,0,1-.8,1.16,1,1,0,0,1-.19.16c-.07.07-.15.09-.2.15a1.5,1.5,0,0,1-.48.61.32.32,0,0,0-.1.21s0,.07,0,.08a2.65,2.65,0,0,1-.39.26,1.46,1.46,0,0,0-.37.33c-.15.21-.31.43-.49.64s-.44.46-.68.67-.35.46-.59.59a2.08,2.08,0,0,0-.5.44,4,4,0,0,0-.33.39,1.32,1.32,0,0,1-.46.39l-.06,0c0,.1-.1.12-.19.15l-.09.06a2.66,2.66,0,0,1-.58.58.67.67,0,0,0-.14.15l-.27.26-.54.53c-.16.16-.35.31-.52.51s-.4.32-.6.48l-.42.33c-.29.24-.56.51-.82.74-.1.06-.19.15-.31.11s-.07,0-.09,0-.3.22-.45.35l-.24.22a.61.61,0,0,0-.27.26.16.16,0,0,1-.07.07,4.76,4.76,0,0,0-.76.55l.07.11a.4.4,0,0,1-.23.09c-.13,0-.19.06-.28.12l-.37.33c-.14.09-.28.21-.42.3s-.27.26-.44.31,0,0-.08.06a.35.35,0,0,1-.11.1l-.45.26-.7.45a6.55,6.55,0,0,0-.59.45c-.15.09-.26.19-.4.29-.31.16-.61.36-.92.53s-.42.3-.64.42l-1.09.62a9.47,9.47,0,0,1-1.24.71l-.52.28L49,32.52a7.4,7.4,0,0,1-.71.32,5,5,0,0,1-.46.24c-.45.2-.92.42-1.39.61-.08.05-.19.06-.27.12s-.46.29-.7.42a0,0,0,0,1,0,0,0,0,0,0,0,0-.07l0,0s-.09.09-.1.12-.06,0-.1,0l-.38.13-.15,0c-.21.08-.47.13-.71.22a3.24,3.24,0,0,1-1,.31,4.52,4.52,0,0,1-.49,0,.88.88,0,0,0-.3.08c-.2.1-.46.06-.62.23h0a.74.74,0,0,1-.42,0l-.16,0a.83.83,0,0,1-.56,0,5.72,5.72,0,0,1-.68-.28v0a.53.53,0,0,1,.19-.06c-.09-.09-.14-.17-.24-.28l.26,0a.73.73,0,0,0,.58-.32.53.53,0,0,1,.11-.11,2.32,2.32,0,0,0,.06-.27c-.11-.07-.32,0-.34-.25l.23-.09a2.77,2.77,0,0,0,1-.24l.84-.25.43-.1c.24-.08.48-.11.73-.19a8.1,8.1,0,0,0,.79-.18,4.2,4.2,0,0,0,.87-.33s0,.07,0,.06l.26,0c.05,0,.07-.08.09-.13s.14-.14.28-.06c.18-.09.35-.14.5-.23a5.61,5.61,0,0,0,.51-.3.58.58,0,0,1-.11.24,3.79,3.79,0,0,0,.67-.2c.31-.14.63-.32,1-.5a1,1,0,0,0,.19-.16c.1-.06.21-.16.34-.24a2.52,2.52,0,0,0,.69-.48l.07,0c-.06.13-.22.2-.22.38.11,0,.2-.1.29-.13a2,2,0,0,0,.26-.11l1.15-.75a.78.78,0,0,0,.31-.29.26.26,0,0,1,.11-.15l.6-.39L53,28.3c.05,0,.08-.06.14-.1,0,.19-.23.18-.16.38l.27-.21c.11-.07.19-.16.34-.11,0,.08-.09.12-.11.19a.47.47,0,0,1-.35.23.75.75,0,0,0-.18.09,1.68,1.68,0,0,0-.34.19c-.06,0-.16.07-.24.13s-.19.21-.3.31l0,0a1.11,1.11,0,0,0-.6.3s0,.06-.08.06-.33.16-.5.26a.28.28,0,0,0-.17.11s-.08.09-.14.09a2,2,0,0,0-.64.42.16.16,0,0,0-.07.07c.12,0,.24-.12.36-.17l.42-.25.13-.08a1.43,1.43,0,0,0,.3-.16,2.75,2.75,0,0,1,.41-.24l.17,0c0,.15-.26.14-.25.3a.36.36,0,0,0,.36-.35l.13-.08s.07-.1.13-.11c.23-.15.47-.27.69-.42l.62-.4a2.3,2.3,0,0,0,.35-.2s.09,0,.1-.06a1.77,1.77,0,0,1,.5-.36,4.53,4.53,0,0,0,.49-.29.8.8,0,0,1,.23-.18c.14-.06.24-.12.26-.28a.3.3,0,0,1,.17-.29.3.3,0,0,0,.09-.08l.25-.25a1.33,1.33,0,0,0,.46-.42.33.33,0,0,1,.13-.11,2.37,2.37,0,0,0,.55-.42c0-.06.11-.1.16-.16s.17-.23.25-.34l.16-.11s0,0,0,0a2.64,2.64,0,0,1-.32.41c.17,0,.23-.14.36-.17s.12-.14.18-.18l.93-.78c.1-.06.21-.16.34-.24a3,3,0,0,1,.53-.41s.06,0,.07-.07l.49-.5a5.63,5.63,0,0,0,.64-.65l.25-.25c.14-.14.27-.26.38-.39s.16-.13.11-.25,0-.08.06-.09.24-.25.35-.35c.27-.27.52-.51.78-.74s.55-.47.83-.72c.07-.07.17-.14.22-.2l.12,0s.1-.06.11-.1a4.78,4.78,0,0,0,.47-.54,5.06,5.06,0,0,0,.39-.43c.16-.16.29-.33.43-.48.26-.31.56-.62.83-.92.07-.08.15-.13.2-.19s.3-.4.47-.59c.34-.38.68-.77,1-1.18.17-.2.32-.41.48-.63s.38-.57.59-.85a2.1,2.1,0,0,0,.15-.22l.25-.33a1.27,1.27,0,0,1,.18-.27C69.59,12.69,69.79,12.45,70,12.2ZM40,34.74c0,.08.11.16.21.1s0-.07,0-.09S40,34.68,40,34.74Zm4.36-.1.15-.1C44.45,34.63,44.43,34.68,44.31,34.64Zm.76-1.73a10,10,0,0,0,1.12-.43,2.49,2.49,0,0,0,.81-.35A13,13,0,0,0,45.07,32.91Zm2-1.42a.07.07,0,0,0,.05,0s0,.05-.05.06H47S47.06,31.5,47.08,31.49Zm.31.44a.2.2,0,0,0,.21,0l0-.05Zm.64.67,0,0a1.22,1.22,0,0,0,.63-.34c.08.08.14.08.19,0a.12.12,0,0,0,0-.1.17.17,0,0,0-.13-.06c-.15.09-.37.12-.48.31s-.11.1-.18.12ZM48,31.86c-.05.06-.13.11-.18.17s.06,0,.1,0l.55-.27.23-.15s0,0,0-.09l-.18.12-.22.08A.56.56,0,0,0,48,31.86Zm-.25-.08,0,0s0,0,0-.06Zm-.24-.45s0,0,.05,0a.11.11,0,0,0,0,.06.15.15,0,0,0-.08,0S47.45,31.34,47.47,31.33Zm.63.29a.26.26,0,0,0,.24-.13C48.24,31.56,48.16,31.58,48.1,31.62Zm.38-.19v0c.1,0,.18-.08.3-.13s0,.1,0,.14l0,0a.67.67,0,0,1,.37-.33s0-.06.06-.13a.12.12,0,0,1-.07,0,1.54,1.54,0,0,1-.45.3A.88.88,0,0,0,48.48,31.43Zm1.13.88a.08.08,0,0,0,0,0,.06.06,0,0,1,0,.06s0,0,0,0S49.59,32.33,49.61,32.31Zm-.16-.51L49.3,32s0,0,.05,0a1.55,1.55,0,0,0,.13-.17ZM49,31.4a8.81,8.81,0,0,0,2-1.1,1.16,1.16,0,0,0-.4.2.75.75,0,0,1-.2.1c-.06,0-.12,0-.16.07a3,3,0,0,0-.55.33c0,.06-.1.06-.18.08S49.17,31.28,49,31.4Zm.94.86c0-.09.06-.13.15-.1Zm-.27-.56c0,.08,0,.12.06.19a.15.15,0,0,0,.17-.11.16.16,0,0,1,.22-.11.2.2,0,0,0,.11,0,7.92,7.92,0,0,0,.69-.42A.24.24,0,0,0,51,31,5.47,5.47,0,0,0,49.65,31.7ZM49.32,31c.12,0,.14,0,.26-.14A.29.29,0,0,0,49.32,31Zm1.26.91.06,0,0,0-.07,0Zm-.23-2.11,0,0c-.07,0,0,.11-.18.12A.55.55,0,0,0,50.35,29.81Zm1.66.51a2,2,0,0,0-.49.34,1.65,1.65,0,0,1-.31.2.58.58,0,0,0-.13.11l0,0a4.71,4.71,0,0,0,.58-.32l0,0a1.33,1.33,0,0,0,.56-.27s.06-.05.08-.06.23-.06.28-.21c.1.11.14.09.21,0l.2-.22s.05-.06.09-.09.3-.22.5-.18l.07,0c0-.13.13-.11.21-.16s.21-.23.32-.33c-.07-.1-.11-.07-.17,0s-.34.24-.5.35-.38.28-.59.41a1,1,0,0,0-.25.07,5.71,5.71,0,0,0-.55.33A.56.56,0,0,1,52,30.32Zm-1-.85c0,.13-.14.14-.21.16S50.93,29.52,51,29.47Zm1.69,1.19s0,0,.07,0l0,0-.09.05A.07.07,0,0,1,52.7,30.66Zm-.6-1s0,0,0,.05v0s.06,0,.07-.07v0Zm.19-.06a2.35,2.35,0,0,0,.79-.49A1.51,1.51,0,0,0,52.29,29.58Zm.79.86,0,0-.08.05,0,0S53.06,30.45,53.08,30.44Zm.5-.36a.18.18,0,0,1,.16-.07.06.06,0,0,1,0,.06Zm.18-2.25a1.5,1.5,0,0,1-.2.22l0,0A.28.28,0,0,1,53.76,27.83Zm1.13-.47s.07,0,.11,0,0,.09,0,.1a2.6,2.6,0,0,0-.44.35,3,3,0,0,1-.56.36.34.34,0,0,1-.17,0s-.07,0-.1,0c.14-.09.23-.18.35-.26a1.31,1.31,0,0,0,.38-.27A1.45,1.45,0,0,1,54.89,27.36Zm-.68,1c.1,0,.15,0,.19-.12S54.25,28.27,54.21,28.39Zm.95-.71a3.62,3.62,0,0,0-.58.41A.88.88,0,0,0,55.16,27.68Zm.08.75a.28.28,0,0,0,.35-.14.88.88,0,0,1,.23-.18l.1-.07C55.74,28,55.64,28.05,55.24,28.43Zm-.4-1.33L55,27v0l-.1.07Zm.58.39,0,.07a.19.19,0,0,1,.07-.08S55.44,27.47,55.42,27.49Zm1.12-1c-.33.22-.67.47-1,.71,0,0,0,.07-.09.09l0,0a.29.29,0,0,0,.16-.07,1.77,1.77,0,0,0,.28-.15,1.94,1.94,0,0,0,.31-.26l.33-.21c.05-.06.11-.1.18-.18C56.63,26.38,56.59,26.4,56.54,26.46Zm0,1a4.13,4.13,0,0,0-.39.34l0,.06a2.17,2.17,0,0,0,.71-.49A.3.3,0,0,0,56.53,27.44Zm.08-.78a3.37,3.37,0,0,0-.46.32.87.87,0,0,0-.16.17l0,0,.15-.1.54-.43s0,0,0-.07ZM57,28c0-.08.07-.13.17-.11S57,28,57,28Zm.43-.34,0,.06a.63.63,0,0,1-.2.1v0A.75.75,0,0,1,57.38,27.62Zm.24-1.71a3.48,3.48,0,0,0-.63.53c.13,0,.2,0,.26-.11a.78.78,0,0,1,.31-.29A.13.13,0,0,0,57.62,25.91Zm1.2-1.27a4.45,4.45,0,0,1-.6.53c-.11,0-.12.08-.16.25.13-.08.22-.17.32-.24a1.05,1.05,0,0,1-.57.52c-.05,0-.12,0-.14.06a.3.3,0,0,1,.14-.06l-.08.11a1.76,1.76,0,0,0,.89-.66h-.14l0,0c.12-.08.23-.18.38-.28a.44.44,0,0,0,.22-.29A.22.22,0,0,0,58.82,24.64Zm.79-.23a.54.54,0,0,0-.41.36C59.4,24.73,59.45,24.52,59.61,24.41ZM71.92,13.06a.56.56,0,0,1,.17.09C72.05,13,72.05,13,71.92,13.06Z"/><path class="cls-2" d="M71.65,9.91a.35.35,0,0,1,.29.14c0,.06.11.08.15.12a.55.55,0,0,0,.15.08l.27.21a2.68,2.68,0,0,0,.33.18c-.1.07-.16.1-.23.16a.21.21,0,0,0,.22.12s.1,0,.12,0a2.87,2.87,0,0,1,.18.34c0,.09.05.17-.07.21s0,0,0,0a.36.36,0,0,1,0,.15c-.08,0-.14,0-.17,0s-.08-.15-.26-.08a1.45,1.45,0,0,0,0,.3.2.2,0,0,0-.12.06,1.65,1.65,0,0,1,0,.3,1.5,1.5,0,0,1-.22.11c0-.06-.07-.1-.1-.16s-.07-.1-.13-.09a.69.69,0,0,1-.47,0h-.08c-.17.05-.32.11-.48.14s-.08,0-.11.12a.13.13,0,0,1-.2,0c0-.07-.14,0-.22,0a11,11,0,0,1-1.41.14.93.93,0,0,1-.24,0c-.1,0-.16-.05-.24-.05a1.71,1.71,0,0,1-.78,0,.29.29,0,0,0-.22.06s-.07,0-.09,0a2.59,2.59,0,0,1-.45-.14,1.39,1.39,0,0,0-.49-.07,7.13,7.13,0,0,1-.81,0,8,8,0,0,1-1-.09,3.17,3.17,0,0,1-.82-.07,2.13,2.13,0,0,0-.67-.1,4.3,4.3,0,0,0-.51,0,1.19,1.19,0,0,1-.59-.1l-.07,0c-.09,0-.15,0-.24-.05l-.09,0a2.52,2.52,0,0,1-.83-.07.44.44,0,0,0-.2,0l-.38,0-.75-.08c-.22,0-.46-.07-.72-.07s-.51-.1-.75-.15l-.53-.12-1.09-.15c-.11,0-.24,0-.28-.17a.16.16,0,0,0-.09,0c-.19,0-.36-.08-.55-.12a2.09,2.09,0,0,1-.32,0,.69.69,0,0,0-.38,0,.17.17,0,0,1-.1,0,4.34,4.34,0,0,0-.91-.23l0,.12c-.1,0-.19-.06-.22-.12s-.18-.1-.27-.13l-.49-.08-.5-.13c-.16-.07-.38,0-.53-.13s0,0-.09,0a.36.36,0,0,1-.15,0c-.16,0-.32-.13-.49-.18l-.79-.24a4.69,4.69,0,0,0-.72-.17c-.17-.06-.32-.08-.48-.13-.32-.12-.68-.23-1-.36a6.75,6.75,0,0,1-.73-.22l-1.17-.44a10.19,10.19,0,0,1-1.34-.49l-.55-.22-1.74-.72a6.33,6.33,0,0,1-.69-.34,4,4,0,0,1-.48-.2c-.45-.22-.92-.44-1.36-.68-.1,0-.18-.1-.27-.13-.26-.08-.52-.16-.77-.26,0,0,0,0,0,0a0,0,0,0,0,.06,0v0c-.05,0-.12,0-.15,0s0-.08,0-.11l-.35-.21a.28.28,0,0,1-.13-.09c-.19-.11-.4-.28-.62-.4A3.4,3.4,0,0,1,37,3.76c-.12-.11-.26-.23-.36-.34a.69.69,0,0,0-.25-.18c-.2-.09-.34-.31-.57-.33l0,0a.81.81,0,0,1-.29-.29l-.12-.12A.77.77,0,0,1,35,2a5.33,5.33,0,0,1-.22-.71v0a.59.59,0,0,1,.17.1c0-.12,0-.22.06-.37a1.3,1.3,0,0,0,.21.17.69.69,0,0,0,.62.24,1.09,1.09,0,0,1,.15,0,1,1,0,0,0,.24-.13c0-.13-.17-.26,0-.42.09.06.18.09.22.12a2.68,2.68,0,0,0,.8.59l.73.48.35.26c.21.14.4.3.61.45s.41.33.65.48a3.78,3.78,0,0,0,.81.46s0,.06,0,.07l.2.16s.11,0,.16,0,.2,0,.23.17a3.14,3.14,0,0,0,.5.23,3,3,0,0,0,.55.2.67.67,0,0,1-.25.08,4.34,4.34,0,0,0,.57.38c.32.15.66.28,1,.41a.64.64,0,0,0,.24,0c.12,0,.27.06.41.1a2.23,2.23,0,0,0,.8.23s0,0,.07,0c-.14,0-.3,0-.44.07.11.06.21.09.29.14a.85.85,0,0,0,.25.13l1.31.41a.88.88,0,0,0,.43,0,.29.29,0,0,1,.18,0l.68.21.9.35s.09,0,.16,0c-.12.15-.29-.06-.39.11.12,0,.22,0,.33.08s.25,0,.3.2-.15,0-.21,0a.47.47,0,0,1-.4-.12.43.43,0,0,0-.18-.08,1.78,1.78,0,0,0-.37-.14l-.25-.1-.43,0,0,0a1,1,0,0,0-.61-.26s-.08,0-.09,0c-.19-.06-.34-.16-.53-.22a.25.25,0,0,0-.19-.05c-.05,0-.12,0-.16-.06a2.21,2.21,0,0,0-.73-.22.17.17,0,0,0-.1,0l.36.17a2.85,2.85,0,0,1,.46.17l.14,0a1.39,1.39,0,0,0,.32.12,3.34,3.34,0,0,1,.44.17.49.49,0,0,1,.15.09c-.14.06-.27-.11-.39,0a.37.37,0,0,0,.5,0l.14,0c.05,0,.14,0,.18,0l.76.27.71.22a2.05,2.05,0,0,0,.37.13s.09.06.12,0a1.72,1.72,0,0,1,.59.16,4.91,4.91,0,0,0,.53.19.54.54,0,0,1,.29.06c.14.07.25.11.38,0a.31.31,0,0,1,.33-.06l.13,0,.35,0A1.29,1.29,0,0,0,52,8.4a.74.74,0,0,1,.17,0,2.34,2.34,0,0,0,.68.16l.22,0,.42,0,.19.06s0,0,0,0a3.05,3.05,0,0,1-.52,0c.12.12.26.08.36.17s.18,0,.25,0L55,9.12a4,4,0,0,1,.41.1,3.41,3.41,0,0,1,.65.14.08.08,0,0,0,.1,0l.7.06a5.49,5.49,0,0,0,.91.07l.35,0,.55,0c.1,0,.2,0,.26-.08l.11,0,.49.06c.38,0,.73.06,1.07.12s.71.12,1.08.18c.1,0,.22,0,.3,0A.49.49,0,0,1,62,10s.12,0,.15,0a5.72,5.72,0,0,0,.71,0l.59,0c.22,0,.43,0,.64,0,.41,0,.84,0,1.24,0l.27,0,.76,0c.5,0,1,0,1.54,0,.26,0,.52,0,.78,0s.69-.07,1-.09A1.22,1.22,0,0,0,70,10l.42,0a1.19,1.19,0,0,1,.32,0ZM35.1,1.31c0,.09-.06.19.06.22s.06,0,.07-.05S35.2,1.34,35.1,1.31ZM38,4.59l.16,0C38.07,4.69,38,4.7,38,4.59Zm1.81-.52a10.74,10.74,0,0,0,1.05.58,2.29,2.29,0,0,0,.78.39A12.19,12.19,0,0,0,39.79,4.07Zm2.38.63a.07.07,0,0,0,0,0H42.1l0-.06S42.14,4.69,42.17,4.7ZM42,5.22c0,.09.1.11.17.13v0A1.59,1.59,0,0,1,42,5.22Zm-.1.92,0,.05a1.28,1.28,0,0,0,.67.26c0,.12,0,.16.13.14s.09,0,.1,0,0-.13,0-.14-.32-.2-.54-.16c-.06,0-.15,0-.21-.07Zm.52-.53-.25,0a.24.24,0,0,0,.09,0l.56.26.26.08s0,0,.07-.06L43,5.85c-.06,0-.13-.07-.2-.12A.53.53,0,0,0,42.45,5.61Zm-.11-.24v0s.05,0,.08,0S42.37,5.38,42.34,5.37Zm.2-.48s0,0,0,.05l0,0c0-.05,0-.05,0-.08S42.52,4.88,42.54,4.89Zm.18.67a.26.26,0,0,0,.25.11C42.86,5.63,42.79,5.58,42.72,5.56Zm.39.17v0l.29.14a.27.27,0,0,1-.12.06l0,0a.73.73,0,0,1,.5.07s.07,0,.14,0a.25.25,0,0,1-.07,0,1.18,1.18,0,0,1-.51-.16A2.58,2.58,0,0,0,43.11,5.73Zm0,1.43a.22.22,0,0,0,0,.06.08.08,0,0,1-.07,0s0,0,0,0Zm.3-.45h-.24s0,0,0,0h.21Zm0-.61a8.92,8.92,0,0,0,2.13.84,1.25,1.25,0,0,0-.41-.18.52.52,0,0,1-.2-.09c-.07,0-.11-.06-.16-.07a2.53,2.53,0,0,0-.6-.21A.26.26,0,0,1,44,6.3C43.88,6.15,43.67,6.16,43.46,6.1ZM43.4,7.37c.09,0,.14,0,.16,0Zm.25-.57-.1.18a.13.13,0,0,0,.18,0c.09,0,.19,0,.23.1a.3.3,0,0,0,.08.08c.25.1.51.18.77.26a.24.24,0,0,0,.28-.07A5.44,5.44,0,0,0,43.65,6.8ZM44,6.1c.07.1.1.11.28.11A.34.34,0,0,0,44,6.1Zm.11,1.56.07,0v0l-.07,0Zm1.48-1.53,0,0c-.06,0-.11,0-.21-.07A.63.63,0,0,0,45.56,6.13Zm.66,1.59a3.16,3.16,0,0,0-.57-.15,2.3,2.3,0,0,1-.35-.1.4.4,0,0,0-.17,0v0a5.27,5.27,0,0,0,.62.24l0,0a1.24,1.24,0,0,0,.56.25s.08,0,.1,0,.19.14.33.08c0,.15,0,.16.13.17h.31a.19.19,0,0,1,.12,0c.15.09.36.08.46.27l.07,0c.12-.07.17,0,.27,0l.45,0c0-.12,0-.13-.08-.15l-.6-.16c-.21-.07-.45-.12-.69-.19A1,1,0,0,0,47,8a4.83,4.83,0,0,0-.6-.21A.66.66,0,0,1,46.22,7.72Zm0-1.3A.22.22,0,0,1,46,6.36Zm.16,2.06s0,0,.07,0v0l-.09,0A0,0,0,0,1,46.4,8.48Zm.4-1.12s0,0,0,0v0s.07,0,.1,0v0Zm.17.11a2.54,2.54,0,0,0,.89.3A1.45,1.45,0,0,0,47,7.47Zm-.15,1.16v0l-.1,0v0Zm.6.16a.14.14,0,0,1,.15.07s0,0,0,0Zm1.84-1.31a1.37,1.37,0,0,1-.3,0v0A.3.3,0,0,1,49.26,7.48ZM50.35,8s0,.07,0,.1-.07,0-.1,0a1.6,1.6,0,0,0-.55-.12,3,3,0,0,1-.64-.2.44.44,0,0,1-.15-.1s0-.06,0-.09c.16.05.28.06.43.11a1.65,1.65,0,0,0,.45.11A1.49,1.49,0,0,1,50.35,8Zm-1.23.14c.09.05.13.09.21.07S49.24,8.14,49.12,8.18Zm1.15.28a3.48,3.48,0,0,0-.69-.19A.93.93,0,0,0,50.27,8.46ZM49.75,9a.26.26,0,0,0,.33.18,2.15,2.15,0,0,1,.29.06l.11,0C50.41,9.09,50.29,9.06,49.75,9Zm.76-1.15.12,0v0l-.11,0Zm.07.69-.06,0a.13.13,0,0,1,.1,0S50.61,8.54,50.58,8.53Zm1.51.21c-.38-.12-.78-.22-1.19-.32h-.12l0,.05a.46.46,0,0,0,.16.07,1.44,1.44,0,0,0,.3.12,3.91,3.91,0,0,0,.39.07l.37.11.25,0C52.21,8.75,52.17,8.74,52.09,8.74Zm-.76.61a4.17,4.17,0,0,0-.51-.08h-.08a2.11,2.11,0,0,0,.83.23A.3.3,0,0,0,51.33,9.35ZM52,8.91a2.87,2.87,0,0,0-.54-.14.86.86,0,0,0-.23,0V8.8l.16,0L52,9s0,0,.06,0ZM51.21,10c.08,0,.14,0,.19.06S51.26,10.08,51.21,10Zm.53.11,0,.07a.64.64,0,0,1-.21-.09v0A.78.78,0,0,1,51.74,10.12Zm1.47-.91a3.13,3.13,0,0,0-.81-.15c.07.1.14.15.24.13a.88.88,0,0,1,.43.05A.13.13,0,0,0,53.21,9.21Zm1.74.1a3.66,3.66,0,0,1-.79-.11c-.11-.06-.14,0-.29,0,.14,0,.26.06.38.1a1,1,0,0,1-.76-.11c0-.06-.05-.12-.14-.07a.37.37,0,0,1,.14.07h-.14a1.81,1.81,0,0,0,1.08.26l-.09-.11V9.33c.14.05.29.07.46.12a.45.45,0,0,0,.36,0A.24.24,0,0,0,55,9.31Zm.68.47a.54.54,0,0,0-.54-.09C55.26,9.82,55.44,9.72,55.63,9.78Zm16.6,2.16a.49.49,0,0,1,0,.19C72.34,12,72.34,12,72.23,11.94Z"/></g></g></svg>