<svg xmlns="http://www.w3.org/2000/svg" viewBox="0 0 14.1 18.1"><defs><style>.cls-1{fill:#e70025;}</style></defs><title>x</title><g id="Layer_2" data-name="Layer 2"><g id="Layer_1-2" data-name="Layer 1"><path class="cls-1" d="M14.1,1,11.6,4.2c-.8,1-1.6,2.1-2.4,3.1.4.8.8,1.7,1.3,2.7s.9,1.9,1.3,2.9l-.3.3v.3l-.2.2c-.1.1-.2.1-.3.2l.1.4a1.38,1.38,0,0,1-.3.4.76.76,0,0,1-.4.2c-.2,0-.5-.4-1.1-1.2a32.44,32.44,0,0,1-2.2-3.5c-.8,1.2-1.7,2.4-2.5,3.7S3,16.4,2.3,17.8a1.42,1.42,0,0,1-.6.2c-.2,0-.4.1-.7.1H.9a4.35,4.35,0,0,1-.6-.7,1.42,1.42,0,0,1-.2-.6v-.3c0-.1.1-.3.1-.4L0,15.7a14.36,14.36,0,0,1,1.9-3.1c.9-1.3,2.2-3,3.8-5q-.45-1.2-.9-2.7c-.3-.9-.7-2-1.1-3.2a1.42,1.42,0,0,1,.2-.6C4,1,4.1.9,4.2.9s.1,0,.2.1.1.1.2.2c.1-.1.1-.1.2-.1h.3c0-.1.1-.1.2-.2L5.5.7h0c.2,0,.7.7,1.3,2.1.4.8.7,1.5,1,2,.5-.5,1.1-1.3,1.9-2.2A14.21,14.21,0,0,1,12.1.1a.37.37,0,0,1,.3.1c.2.1.3.2.5.3l.5-.5a1.76,1.76,0,0,1,.4.5A2.19,2.19,0,0,1,14.1,1Z"/></g></g></svg>