<svg xmlns="http://www.w3.org/2000/svg" viewBox="0 0 13.59 14.3"><defs><style>.cls-1{fill:#39b54a;}</style></defs><title>checkmark</title><g id="Layer_2" data-name="Layer 2"><g id="Layer_1-2" data-name="Layer 1"><path class="cls-1" d="M13.59.34Q11.07,3.16,8.85,6.18a71.53,71.53,0,0,0-4.06,6.19c-.1.16-.21.38-.35.66a2,2,0,0,1-1.8,1.27,1.91,1.91,0,0,1-.82-.15,1.58,1.58,0,0,1-.6-.51,3.79,3.79,0,0,1-.42-.81C.67,12.49.52,12,.34,11.35c0,0,0-.09,0-.15A7.26,7.26,0,0,1,0,9.84a1.3,1.3,0,0,1,.65-1,2.18,2.18,0,0,1,1.28-.46.49.49,0,0,1,.34.12A1.84,1.84,0,0,1,2.56,9c.06.17.15.39.24.67.22.62.41.94.56.94A9,9,0,0,0,4.9,8.47C5.76,7.11,6.5,6,7.12,5c.86-1.3,1.52-2.23,2-2.81A9,9,0,0,1,10.32.92,3.55,3.55,0,0,1,11.55.3,8.8,8.8,0,0,1,13.46,0Z"/></g></g></svg>