<?xml version="1.0" encoding="utf-8"?>
<!-- Generator: Adobe Illustrator 23.0.0, SVG Export Plug-In . SVG Version: 6.00 Build 0)  -->
<svg version="1.1" id="Layer_1" xmlns="http://www.w3.org/2000/svg" xmlns:xlink="http://www.w3.org/1999/xlink" x="0px" y="0px"
	 viewBox="0 0 112.5 44.7" style="enable-background:new 0 0 112.5 44.7;" xml:space="preserve">
<style type="text/css">
	.st0{fill:#FFFFFF;}
</style>
<path class="st0" d="M0.5,41.1c0.1-0.3,0.1-0.6,0.1-0.8c0-0.3,0.1-0.5,0.1-0.7c0.1-0.5,0.2-1,0.3-1.6c0.1-0.5,0.2-1,0.4-1.6
	c0.1-0.3,0.1-0.6,0.2-0.9c0.1-0.3,0.1-0.6,0.2-0.9c0.1-0.4,0.2-0.9,0.4-1.3c0.1-0.4,0.2-0.9,0.3-1.3L3,30.3l0.7-2.6
	c0-0.1,0.1-0.2,0.1-0.3c0.1-0.1,0.1-0.2,0.1-0.3c0.2-0.7,0.4-1.3,0.5-2c0.2-0.7,0.3-1.3,0.5-2c0.2-0.4,0.3-0.9,0.5-1.4
	s0.3-1.1,0.5-1.6C5.9,20,6,19.9,6,19.7c0-0.3,0.1-0.6,0.2-0.9c0.1-0.3,0.2-0.6,0.3-0.9c0.3-0.9,0.6-1.8,0.8-2.7
	c0.3-0.9,0.5-1.7,0.8-2.6c0-0.1,0.1-0.3,0.2-0.4s0.1-0.3,0.1-0.4l0.1-0.1c-0.1-0.1-0.1-0.1-0.2-0.1c0,0,0-0.1-0.1-0.1H8.1
	c-0.2,0.1-0.4,0.3-0.5,0.4c-0.2,0.1-0.3,0.3-0.5,0.5C5.4,14,4,15.7,2.9,17.6c-0.3,0.2-0.5,0.7-0.8,1.1c-0.3,0.5-0.5,1-0.5,1.5
	c0,0.1-0.1,0.2-0.2,0.2c-0.7-0.4-1.1-0.9-1-1.7c0-0.1,0-0.3,0.1-0.5c0.1-0.5,0.3-1,0.6-1.6c0.2-0.5,0.5-1,0.7-1.5
	c0.5-0.9,1.1-1.7,1.8-2.5S5,11,5.8,10.2L8,8.1l1.2-0.8C9.5,7.1,9.8,6.9,10,6.6c0.2-0.3,0.3-0.6,0.4-1c0.3-0.9,0.6-1.7,1-2.5
	c0.3-0.8,0.7-1.6,1-2.5c-0.1,0.1,0,0,0-0.1s0.1-0.2,0.2-0.3c0.1,0,0.1-0.1,0.2-0.1S12.9,0,13,0c0.4,0.1,0.7,0.2,0.9,0.4
	c0.2,0.2,0.2,0.5,0.2,0.9L14,1.7c0,0.3-0.1,0.5-0.2,0.8c-0.1,0.2-0.2,0.5-0.3,0.8c0,0.2-0.1,0.4-0.1,0.6s0,0.4-0.1,0.6
	c0,0.1,0,0.2,0.1,0.2c0,0,0.1,0,0.2-0.1c0.3-0.1,0.6-0.2,0.8-0.3c0.2-0.1,0.5-0.2,0.7-0.3c0.6-0.3,1.2-0.5,1.8-0.7
	C17.4,3.1,18,3,18.7,2.8c0.2,0,0.5-0.1,0.8-0.1s0.6-0.1,0.9-0.1h0.2c0.2,0,0.3-0.1,0.5-0.1c0.1,0,0.3,0,0.5,0c1.7,0,3.3,0.6,4.7,1.7
	c0.6,0.3,1.1,0.8,1.4,1.3C28,6,28.3,6.6,28.5,7.3c0.5,1.3,0.8,2.6,0.8,4c0,0.5,0,1,0,1.5c0,0.4,0,0.9-0.1,1.3l-0.1,0.8
	c-0.1,0.7-0.3,1.4-0.5,2c-0.2,0.7-0.4,1.3-0.6,1.9c-0.7,2.1-1.7,4.1-3,6c-0.5,0.9-1.1,1.7-1.6,2.6c-0.6,0.9-1.1,1.7-1.7,2.5
	c-0.5,0.7-1.1,1.5-1.7,2.2s-1.2,1.5-1.8,2.2c-0.5,0.6-1,1.1-1.5,1.6s-1,1-1.6,1.4c-0.4,0.4-0.8,0.7-1.3,1.1
	c-0.4,0.3-0.9,0.6-1.5,0.8c-0.3,0.1-0.6,0.3-0.8,0.4c-0.3,0.1-0.5,0.1-0.8,0.1c-0.1,0-0.1,0-0.2,0s-0.1,0-0.2,0
	c-0.3,0-0.6,0-0.8-0.1c-0.2,0-0.5-0.1-0.7-0.3c-0.2-0.2-0.4-0.3-0.5-0.4c-0.2-0.1-0.3-0.2-0.4-0.4c-0.3-0.3-0.6-0.6-0.7-1
	c-0.1-0.4-0.1-0.7-0.1-1.1c0-0.2,0.1-0.5,0.2-0.8C7.5,35,7.7,34.4,8,33.8c0.3-0.6,0.6-1.2,0.9-1.8c0.3-0.6,0.6-1.1,0.9-1.7
	c0.4-0.5,0.7-1,1-1.6c0.2-0.4,0.5-0.8,0.8-1.2c0.3-0.4,0.6-0.8,0.9-1.2c0.4-0.5,0.9-1,1.4-1.6c0.5-0.5,1-1,1.5-1.6s1.1-1.1,1.6-1.6
	s1.2-1,1.9-1.4c0.6-0.4,1.3-0.7,2-1s1.4-0.4,2.1-0.5c0.1,0,0.4-0.1,0.7-0.1c0.5,0,0.9,0.1,1.2,0.4H25c0.1,0,0.2-0.1,0.3-0.2
	c0-0.1,0.1-0.2,0.2-0.3c0.1-0.1,0.1-0.3,0.2-0.5c0.2-0.5,0.4-1.1,0.6-1.6s0.3-1.1,0.4-1.7c0.3-0.6,0.4-1.3,0.6-1.8l0.1-0.7
	c0.1-0.6,0.1-1.3,0.1-1.9c0-0.6-0.1-1.2-0.1-1.9c-0.1-0.7-0.2-1.3-0.5-1.8c-0.1-0.3-0.3-0.5-0.5-0.7S26,5.4,25.7,5.2
	c-0.2-0.1-0.4-0.2-0.6-0.3s-0.4-0.2-0.7-0.3c-0.8,0.2-1.4,0.1-2,0.1c-0.5,0-1,0-1.5,0.1s-1,0.2-1.5,0.3s-1,0.2-1.5,0.4
	s-1,0.4-1.6,0.6c-0.6,0.3-1.1,0.5-1.7,0.8s-1.2,0.6-1.8,0.9c-0.1,0.1-0.3,0.2-0.5,0.3s-0.4,0.4-0.4,0.7c-0.1,0.3-0.2,0.7-0.3,1
	c-0.1,0.3-0.2,0.7-0.3,1l-1.9,6.5c-0.1,0.4-0.3,0.7-0.3,1.1c-0.1,0.4-0.1,0.7-0.2,1c-0.1,0.2-0.1,0.4-0.2,0.6
	c-0.1,0.2-0.1,0.4-0.1,0.6c-0.3,0.7-0.6,1.5-0.8,2.3s-0.5,1.5-0.7,2.3c-0.2,0.6-0.4,1.3-0.6,1.9C6.3,27.7,6.1,28.4,6,29
	c-0.3,0.9-0.5,1.8-0.8,2.7s-0.6,1.8-0.8,2.7c-0.1,0.4-0.2,0.8-0.3,1.2s-0.2,0.8-0.3,1.1c-0.2,0.5-0.3,1-0.4,1.5s-0.2,0.9-0.3,1.4
	C3,39.7,3,39.8,3,40c0,0.1,0,0.3-0.1,0.4c0,0.2-0.1,0.4-0.1,0.6c-0.1,0.2-0.1,0.4-0.1,0.6c0,0.2-0.1,0.3-0.1,0.5
	c0,0.1-0.1,0.3-0.1,0.5c-0.1,0.4,0,0.8,0.1,1.1v0.4c-0.2-0.1-0.2,0-0.2,0c0,0.1,0,0.1-0.1,0.2c0,0.3-0.2,0.4-0.4,0.4H1.8
	c-0.3,0-0.6-0.1-0.8-0.3c-0.2-0.1-0.4-0.3-0.6-0.5c-0.1,0-0.2-0.1-0.3-0.3c0-0.1,0-0.2,0-0.3c0,0-0.1-0.1-0.1-0.3c0-0.1,0-0.1,0-0.2
	c0,0,0-0.1,0.1-0.2c0-0.3,0.1-0.6,0.1-0.9C0.4,41.6,0.5,41.4,0.5,41.1z M2.3,15.9c0.1,0,0.2-0.1,0.2-0.3c-0.1,0.1-0.1,0.1-0.1,0.1
	C2.4,15.8,2.4,15.8,2.3,15.9z M2.6,15.5c0.1-0.1,0.3-0.2,0.3-0.4C2.7,15.2,2.6,15.3,2.6,15.5z M2.8,35.2L2.8,35.2l-0.1,0.2h0.1V35.2
	L2.8,35.2z M5.7,11.4c-0.1,0.1-0.2,0.3-0.3,0.4S5.2,12,5,12.1c-0.1,0.1-0.1,0.2-0.2,0.3c0,0.1-0.1,0.2-0.3,0.3
	c0,0.1-0.1,0.2-0.1,0.3c-0.1,0.1-0.1,0.2-0.3,0.3l-0.3,0.4c0-0.1,0-0.1,0-0.2s0-0.1,0-0.2c-0.1,0.1-0.2,0.2-0.2,0.4h0.1l-0.3,0.2
	h0.1c-0.1,0.1-0.2,0.2-0.3,0.4c-0.1,0.1-0.1,0.1-0.2,0.2c0,0-0.1,0.1-0.2,0.1v-0.1c0,0,0,0,0-0.1l-0.2,0.2c0.1,0,0.1,0,0.2,0.1
	c0,0.1,0,0.1-0.1,0.2c0,0-0.1,0.1-0.1,0.2c-0.1,0-0.1,0.1-0.1,0.3c0.1,0,0.1-0.1,0.1-0.1s0-0.1,0.1-0.1c0.1-0.1,0.1-0.1,0.2-0.2
	c0.4-0.3,0.5-0.4,0.5-0.5c1-1.2,2-2.4,3.1-3.4c0.1,0,0.1-0.1,0.2-0.3c0.5-0.3,1-0.7,1.4-1.2c0.2-0.1,0.4-0.3,0.6-0.4
	c0.2-0.1,0.4-0.3,0.5-0.6V8.5c0,0-0.1,0.1-0.3,0.2C8.7,8.8,8.4,9.1,7.8,9.5C7.7,9.6,7.6,9.7,7.5,9.8S7.2,10.1,7,10.2
	c-0.1,0.1-0.1,0.2-0.2,0.3c-0.1,0.1-0.1,0.2-0.2,0.3c-0.1,0.1-0.2,0.2-0.3,0.3S6,11.3,5.9,11.4H5.7z M3.2,33.5L3.2,33.5L3.2,33.5
	L3.2,33.5z M3.4,14.2l-0.1-0.1l-0.1,0.1H3.4z M3.6,31.9L3.6,31.9c0,0.1,0,0.1-0.1,0.2h0.1V32V31.9L3.6,31.9z M4.1,13.2L4.1,13.2
	C4,13.2,4,13.1,4,13.1s-0.1,0-0.1,0.1H4.1z M4.2,30.4L4.2,30.4c0-0.1-0.1-0.1-0.1-0.2v0.1c0,0,0,0,0,0.1s0,0.1,0.1,0.2
	C4.1,30.5,4.1,30.5,4.2,30.4z M4.6,12.7l-0.1-0.1c-0.1,0-0.2,0-0.2,0.1H4.6z M4.5,28.9L4.5,28.9L4.5,28.9L4.5,28.9L4.5,28.9z
	 M4.7,13.8C4.8,13.7,5,13.7,5,13.6c0.1-0.1,0.1-0.2,0.2-0.3c-0.2,0-0.3,0.1-0.4,0.2C4.8,13.6,4.8,13.7,4.7,13.8z M5,12.2l-0.1-0.1
	c0,0-0.1,0-0.1,0.1H5z M5,27.3C5,27.4,5,27.4,5,27.3c0,0.1-0.1,0.1-0.1,0.1v0.1L5,27.3L5,27.3z M5.2,13.2c0.2-0.1,0.3-0.2,0.4-0.5
	C5.4,12.8,5.3,13,5.2,13.2z M5.2,26.1L5.2,26.1h0.2H5.2z M5.7,11.3l-0.1,0.1c0,0-0.1,0-0.1,0.1h0.1l0.1,0.1V11.3z M5.9,11.3
	l-0.1-0.1c0,0-0.1,0-0.1,0.1H5.9z M5.8,24.7L5.8,24.7L5.8,24.7C5.7,24.7,5.7,24.7,5.8,24.7C5.7,24.7,5.8,24.7,5.8,24.7L5.8,24.7z
	 M5.9,12.6c0.3-0.2,0.6-0.4,0.7-0.7c-0.1,0.1-0.2,0.2-0.4,0.3C6,12.2,5.9,12.4,5.9,12.6z M6.3,23.2L6.3,23.2l-0.2,0.1L6,23.4
	L6.3,23.2z M6.7,11.7c0.5-0.3,0.9-0.7,1.2-1.1c-0.3,0.1-0.5,0.3-0.7,0.4S6.8,11.4,6.7,11.7z M8,10.3l-0.1,0.1L8,10.3L8,10.3L8,10.3z
	 M9.2,36.6c0.1,0.2,0.1,0.3,0.1,0.4c0,0.1,0,0.3,0,0.4c0,0.2,0.1,0.3,0.3,0.3h0.2c0.4-0.1,0.8-0.3,1.1-0.6c0.3-0.2,0.7-0.4,1-0.6
	c0.4-0.3,0.8-0.6,1.1-0.9c0.3-0.3,0.6-0.7,1-1c0.7-0.7,1.5-1.5,2.1-2.3c0.7-0.8,1.4-1.6,2.1-2.4c0.4-0.4,0.7-0.9,1.1-1.4
	s0.7-0.9,1-1.3c0.2-0.3,0.4-0.5,0.5-0.7s0.3-0.4,0.4-0.6c0.3-0.4,0.6-0.8,0.9-1.2c0.3-0.4,0.6-0.8,0.8-1.2c0.3-0.4,0.6-0.8,0.8-1.3
	c0.2-0.4,0.5-0.9,0.8-1.3l0.3-0.7v-0.1c-0.1,0-0.1,0-0.1,0c-0.1,0-0.2-0.1-0.4-0.1c-0.9,0.1-1.8,0.4-2.5,0.8
	c-0.7,0.3-1.3,0.7-1.8,1.1s-1,0.9-1.6,1.4s-1.2,1.1-1.8,1.7c-0.5,0.6-1.1,1.2-1.6,1.9c-0.4,0.6-0.9,1.2-1.3,1.8s-0.9,1.3-1.3,1.8
	c-0.3,0.6-0.7,1.2-1,1.7s-0.7,1.2-1,1.8c-0.2,0.4-0.4,0.8-0.6,1.2C9.4,35.7,9.3,36.2,9.2,36.6z M9.3,33.1h0.1H9.3L9.3,33.1z
	 M9.5,32.5L9.5,32.5c0.1,0,0.1,0,0.1,0s0.1,0,0.1-0.1c0,0,0,0.1-0.1,0.1C9.6,32.5,9.5,32.5,9.5,32.5z M9.7,32.4
	c0.1-0.1,0.2-0.3,0.2-0.5c-0.1,0.1-0.1,0.2-0.1,0.3C9.7,32.3,9.7,32.4,9.7,32.4z M10,31.9c0.1-0.1,0.2-0.3,0.2-0.4
	C10.1,31.5,10,31.7,10,31.9z M10.2,31.5c0.3-0.2,0.5-0.5,0.6-0.9C10.4,30.8,10.3,31.1,10.2,31.5z M10.7,30.6c0,0,0.1-0.1,0.2-0.3
	C10.8,30.4,10.7,30.5,10.7,30.6z M13.1,26.7v-0.2l-0.3,0.7l-0.3,0.2c0,0.2-0.1,0.2-0.1,0.3c-0.1,0-0.1,0.1-0.2,0.2
	c0,0.1-0.1,0.1-0.1,0.2c0,0.1-0.1,0.1-0.1,0.2c-0.1,0.1-0.1,0.2-0.2,0.3L11.6,29c-0.1,0.1-0.1,0.1-0.2,0.2c-0.1,0-0.1,0.1-0.1,0.2
	c0,0.1-0.1,0.1-0.1,0.2c0,0.1-0.1,0.1-0.1,0.2c0,0.1,0,0.2,0,0.3s0,0.2-0.1,0.3l0.4-0.4c0.2-0.4,0.4-0.7,0.6-1
	c0.2-0.3,0.4-0.6,0.7-1c0.1-0.1,0.1-0.1,0.1-0.2c0,0,0-0.1,0.1-0.2c0.3-0.2,0.5-0.6,0.7-1L13.1,26.7z M14.3,25.5
	c-0.2,0.1-0.4,0.2-0.5,0.4c-0.1,0.2-0.2,0.3-0.3,0.5c0.2-0.1,0.3-0.2,0.4-0.3C14.2,26,14.2,25.8,14.3,25.5c0.3-0.1,0.4-0.3,0.4-0.6
	c-0.1,0-0.2,0.1-0.3,0.2C14.4,25.3,14.4,25.4,14.3,25.5z M14.4,26.4c0.1,0,0.2-0.1,0.2-0.3L14.4,26.4z M14.7,25
	c0.3-0.1,0.4-0.3,0.5-0.6C14.9,24.6,14.7,24.8,14.7,25z M15,25.5c-0.1,0.1-0.2,0.3-0.2,0.3L15,25.5z M15.4,34.7
	c-0.3,0.1-0.4,0.2-0.4,0.5C15.3,35.1,15.4,35,15.4,34.7z M15.2,24.4c0.2-0.1,0.3-0.2,0.4-0.3c0.1-0.1,0.2-0.2,0.2-0.4
	C15.5,23.9,15.3,24.1,15.2,24.4z M15.4,25c-0.1,0.1-0.2,0.2-0.2,0.3L15.4,25z M16.3,33.8c-0.1,0.1-0.3,0.2-0.4,0.3s-0.2,0.3-0.3,0.4
	C16,34.3,16.3,34.1,16.3,33.8z M15.9,23.8c0.2-0.1,0.4-0.3,0.4-0.5C16,23.3,15.9,23.5,15.9,23.8z M16.6,34.8c-0.1,0-0.2,0.1-0.3,0.2
	c-0.1,0.1-0.2,0.2-0.2,0.3C16.3,35.2,16.5,35.1,16.6,34.8z M16.8,33.3c-0.1,0.1-0.2,0.1-0.3,0.2c-0.1,0.1-0.2,0.1-0.2,0.3
	C16.6,33.7,16.7,33.6,16.8,33.3z M17.3,34.1c0.2-0.1,0.3-0.2,0.4-0.5c0.3-0.2,0.6-0.5,0.8-0.8c0.2-0.3,0.4-0.6,0.6-0.9
	c0.2-0.2,0.4-0.4,0.6-0.7c0.2-0.2,0.3-0.5,0.4-0.8c0.3-0.2,0.5-0.4,0.6-0.6c0.1-0.2,0.2-0.4,0.3-0.7c-0.3,0.1-0.4,0.3-0.6,0.6
	c-0.1,0.2-0.2,0.4-0.4,0.6c-0.3,0.2-0.5,0.5-0.7,0.7c-0.2,0.3-0.3,0.5-0.4,0.7c-0.6,0.6-1,1.1-1.5,1.7
	C17.5,33.6,17.3,33.8,17.3,34.1c-0.2,0-0.3,0.1-0.4,0.2c-0.1,0.1-0.1,0.2-0.2,0.3c0.2-0.1,0.4-0.1,0.4-0.2
	C17.2,34.3,17.3,34.2,17.3,34.1z M23,24.9l-0.1,0.5l-0.4,0.2l0.1-0.4c-0.1,0-0.1,0-0.2,0.1c0,0.1-0.1,0.1-0.1,0.2c0,0,0,0.1,0.1,0.1
	h0.1c0,0.1-0.1,0.2-0.2,0.3c0-0.1,0.1-0.2,0.1-0.3c0,0-0.1,0.1-0.2,0.3h0.2l-0.2,0.4l0.1-0.4c-0.1,0-0.2,0.1-0.2,0.2
	S22,26.2,22,26.3h0.2c0,0.1-0.1,0.1-0.2,0.2c-0.1,0-0.1,0.1-0.1,0.1l0.1-0.3c-0.1,0.1-0.2,0.2-0.2,0.3H22c-0.1,0.3-0.3,0.6-0.5,0.9
	c-0.2,0.3-0.4,0.6-0.8,0.9c-0.1,0.4-0.4,0.8-0.7,1.1c-0.4,0.6-0.9,1.1-1.4,1.7c-0.5,0.5-0.9,1.1-1.3,1.7c-0.1,0.1-0.1,0.2-0.2,0.3
	c0,0.1-0.1,0.2-0.2,0.3c0.1-0.1,0.2-0.1,0.3-0.2c0.1-0.1,0.2-0.2,0.3-0.3c0.8-1,1.6-2,2.4-2.9c0.8-1,1.5-2,2.3-3
	c0.1-0.2,0.3-0.4,0.5-0.6s0.3-0.5,0.4-0.8c0.2-0.3,0.4-0.6,0.6-0.8c0.2-0.3,0.3-0.6,0.4-0.9c-0.1,0.1-0.1,0.3-0.2,0.3
	c-0.1,0.1-0.2,0.2-0.3,0.3c-0.1,0.1-0.1,0.2-0.2,0.3C23.1,24.7,23.1,24.8,23,24.9v-0.2c0,0.1-0.1,0.1-0.1,0.1s-0.1,0-0.1,0.1H23z
	 M20.6,28c-0.1,0.1-0.1,0.1-0.2,0.2h0.1c0,0,0-0.1,0.1-0.1C20.6,28,20.6,28,20.6,28z M22.1,28c-0.2,0.1-0.4,0.2-0.6,0.4
	c-0.1,0.2-0.3,0.5-0.4,0.7C21.6,28.9,21.9,28.5,22.1,28z M22.3,27.7c-0.1,0.1-0.2,0.1-0.2,0.2C22.3,27.9,22.3,27.8,22.3,27.7z
	 M22.6,27.3c0,0.1,0,0.1-0.1,0.2L22.6,27.3z M22.8,27l-0.1,0.1L22.8,27z M24.2,23.4c0,0.1-0.1,0.2-0.3,0.3
	C24.1,23.7,24.2,23.6,24.2,23.4z M24.2,23.3l-0.1,0.1C24.2,23.4,24.2,23.4,24.2,23.3C24.2,23.4,24.2,23.3,24.2,23.3z"/>
<path class="st0" d="M31.7,23.5c0,0.2-0.1,0.4-0.4,0.4l0.1-0.3c-0.2,0.1-0.3,0.3-0.3,0.4c0.1-0.1,0.2-0.2,0.2-0.2
	c0,0.1-0.1,0.1-0.1,0.2v0.2c-0.4,0.6-0.8,1.3-1.1,1.8c-0.3,0.6-0.6,1.2-0.9,1.9c-0.1,0.2-0.1,0.4-0.2,0.6c-0.1,0.2-0.1,0.4-0.2,0.7
	c0.1,0,0.1-0.1,0.2-0.2c0-0.1,0.1-0.2,0.2-0.3c0.5-1.2,1-2.3,1.5-3.3c0.2-0.3,0.4-0.6,0.7-1s0.4-0.7,0.6-1c0.2-0.1,0.3-0.3,0.3-0.4
	l0.2-0.2c0.2,0,0.3,0,0.3,0.1s0,0.2,0.1,0.3v0.1l0.1-0.1c0,0,0.1,0,0.1-0.1c0.2,0,0.3,0,0.3,0.1s-0.1,0.3-0.1,0.3
	c0,0.1-0.1,0.2-0.2,0.3c-0.2,0.4-0.4,0.8-0.5,1.2c-0.2,0.4-0.4,0.8-0.6,1.2c-0.3,0.7-0.5,1.4-0.8,2.1c-0.3,0.7-0.6,1.4-0.8,2.1
	c-0.2,0.5-0.3,1-0.5,1.5c-0.1,0.5-0.2,1-0.3,1.5l-0.1,0.8h0.1c0,0,0,0,0.1,0c0.3-0.1,0.4-0.2,0.6-0.3c0.4-0.3,0.8-0.7,1.2-1
	s0.8-0.7,1.2-1.1c0.4-0.4,0.9-0.9,1.3-1.3c0.4-0.4,0.9-0.8,1.3-1.1c0.4-0.4,0.7-0.8,1.1-1.1c0.4-0.4,0.7-0.7,1.1-1.1
	c0.5-0.4,1-0.9,1.4-1.4s0.9-0.9,1.3-1.4l0.3-0.4c0.1,0.1,0.1,0.3,0.1,0.6v0.1c0,0.1,0,0.2-0.1,0.4c-0.1,0.3-0.2,0.6-0.4,0.9
	s-0.4,0.6-0.7,0.9c-0.3,0.1-0.5,0.3-0.6,0.4l-0.2,0.4c-0.4,0.3-0.8,0.7-1,1c-0.3,0.3-0.6,0.7-0.9,1c-0.6,0.6-1.2,1.1-1.7,1.7
	c-0.5,0.6-1,1.1-1.6,1.6c-0.2,0.3-0.4,0.6-0.6,0.8c-0.2,0.2-0.5,0.5-0.6,0.7S32,34.8,31.8,35c-0.1,0.1-0.3,0.3-0.4,0.5l-1,0.8
	c-0.2,0.1-0.5,0.2-0.8,0.2s-0.5,0-0.6-0.1s-0.2-0.1-0.3-0.2c-0.1,0-0.2-0.1-0.3-0.2c-0.4-0.1-0.6-0.3-0.8-0.4
	c-0.1-0.1-0.2-0.3-0.3-0.4c-0.1-0.1-0.2-0.3-0.3-0.5c-0.1-0.3-0.1-0.6-0.2-0.9c-0.1-0.3,0-0.6,0-0.9c0.1-0.6,0.2-1.3,0.3-1.9
	c0.1-0.6,0.3-1.2,0.6-1.9c0.1-0.9,0.4-1.7,0.9-2.5l1.3-2.1c0.2-0.3,0.4-0.6,0.6-0.8c0.2-0.2,0.4-0.5,0.7-0.8
	c0.1-0.2,0.2-0.2,0.3-0.2s0.2,0,0.2,0c0,0.1,0,0.2,0.1,0.3v0.1c0,0,0,0,0,0.1v0.1L31.7,23.5l0.2-0.1v0.1
	C31.8,23.5,31.8,23.5,31.7,23.5z M28.4,29.2c0,0,0.1-0.1,0.2-0.1C28.6,29.1,28.5,29.1,28.4,29.2L28.4,29.2z M28.7,28.9
	c0,0,0-0.1-0.1-0.3c0,0.1-0.1,0.1-0.1,0.2c0,0.1,0,0.1,0.1,0.2C28.7,29,28.7,29,28.7,28.9z M28.6,28.6c0.1,0,0.1-0.1,0.1-0.2
	C28.7,28.4,28.6,28.5,28.6,28.6z M28.8,29.5c0,0-0.1,0.1-0.1,0.2l-0.1,0.2c0,0,0.1-0.1,0.1-0.2L28.8,29.5z M28.8,28.4
	c0,0,0.1-0.1,0.1-0.2c0-0.1,0-0.1,0.1-0.2C28.9,28.1,28.8,28.2,28.8,28.4z M29.1,27.8L29.1,27.8c0-0.1-0.1-0.1-0.1-0.1l-0.1,0.1V28
	C29.1,27.9,29.1,27.9,29.1,27.8z M29,27.7c0.1-0.2,0.3-0.4,0.4-0.5s0.2-0.4,0.2-0.7C29.4,26.9,29.2,27.3,29,27.7z M29.7,26.5
	c0.1,0,0.2-0.1,0.2-0.2C29.8,26.3,29.7,26.4,29.7,26.5z M29.9,26.2C29.9,26.1,29.9,26.1,29.9,26.2c0-0.1-0.1-0.1-0.1-0.2L29.9,26.2
	L29.9,26.2z M29.9,26c0.2-0.1,0.4-0.3,0.5-0.5s0.2-0.4,0.3-0.7c-0.2,0.2-0.3,0.4-0.5,0.5C30.1,25.5,30,25.7,29.9,26z M30.7,24.8
	l0.1-0.1c0.1,0,0.1-0.1,0.1-0.2c-0.1,0-0.1,0.1-0.2,0.1C30.7,24.6,30.7,24.7,30.7,24.8z M30.9,24.5v-0.2l0.2-0.1
	C31.1,24.3,31,24.4,30.9,24.5z M31.3,34.7L31.3,34.7C31.3,34.6,31.4,34.6,31.3,34.7L31.3,34.7C31.2,34.7,31.2,34.7,31.3,34.7
	l-0.1,0.2C31.2,34.9,31.2,34.8,31.3,34.7C31.3,34.8,31.3,34.8,31.3,34.7z M31.7,23.5c0-0.1,0-0.1-0.1-0.2c-0.2,0-0.3,0.2-0.3,0.4
	c0.1-0.1,0.1-0.1,0.2-0.1C31.6,23.6,31.7,23.6,31.7,23.5z M31.3,34.6c0.3-0.1,0.5-0.3,0.5-0.4c-0.1,0-0.1,0.1-0.2,0.2
	C31.6,34.4,31.5,34.5,31.3,34.6z M32.2,22.9L32.1,23l0.1,0.1c-0.1,0-0.2,0-0.3,0.1l0.1-0.1c0,0,0,0,0.1-0.1
	C32.1,23,32.1,22.9,32.2,22.9C32.1,23,32.1,23,32.2,22.9L32.2,22.9L32.2,22.9z M32.4,33.5c-0.1,0-0.1,0.1-0.2,0.1
	c-0.1,0-0.1,0.1-0.2,0.3C32.3,33.8,32.4,33.7,32.4,33.5L32.4,33.5z M32.5,32.8L32.5,32.8c-0.1,0.1-0.1,0.2-0.1,0.2L32.5,32.8
	L32.5,32.8C32.6,32.8,32.6,32.8,32.5,32.8z M32.5,33.5c0.1-0.1,0.1-0.1,0.1-0.2L32.5,33.5L32.5,33.5z M32.6,33.3
	c0.1,0,0.3-0.1,0.3-0.3C32.7,33.1,32.6,33.2,32.6,33.3z M32.8,32.5c0,0.1,0,0.1-0.1,0.2c0.2-0.1,0.3-0.1,0.3-0.2v-0.1
	C32.9,32.4,32.8,32.4,32.8,32.5z M33,32.3c0,0,0.1-0.1,0.2-0.1l0.1-0.1h-0.1L33,32.3z M33.1,32.8c0.1-0.1,0.2-0.3,0.2-0.4L33.1,32.8
	z M35.8,18.3c-0.1,0-0.1,0.1-0.1,0.2s0,0.1-0.1,0.2c-0.2,0.1-0.4,0.2-0.6,0.5c-0.1,0.1-0.2,0.2-0.2,0.4c0,0.1,0,0.2,0,0.3
	c-0.1,0.2-0.2,0.4-0.3,0.6c-0.1,0-0.1,0-0.2,0h-0.1c0,0-0.1,0-0.1-0.1s0-0.1-0.1-0.1v-0.2c0-0.1-0.1-0.1-0.2-0.2
	c-0.1,0-0.2-0.1-0.2-0.3c0-0.1,0-0.2-0.1-0.2s-0.2-0.1-0.3-0.1S33,19.2,33,19c0.1-0.3,0.2-0.6,0.3-0.8c0.1-0.3,0.3-0.5,0.6-0.7
	c0-0.1,0.1-0.1,0.3-0.1c0.1,0,0.2,0,0.2,0.1c0.1,0,0.2,0.1,0.3,0.1s0.2,0.1,0.3,0.2s0.2,0.2,0.3,0.3C35.7,18.2,35.7,18.3,35.8,18.3z
	 M33.5,32.3L33.5,32.3L33.5,32.3L33.5,32.3z M33.5,32.2c0.2-0.1,0.4-0.2,0.4-0.3C33.7,32,33.6,32.1,33.5,32.2z M33.6,31.6
	C33.6,31.6,33.6,31.7,33.6,31.6C33.6,31.7,33.5,31.7,33.6,31.6L33.6,31.6L33.6,31.6L33.6,31.6z M34,31.3C34,31.3,33.9,31.3,34,31.3
	v0.2V31.3z M34,31.9L34,31.9l0.1-0.2C34.1,31.8,34,31.8,34,31.9L34,31.9z M34,31.3L34,31.3l0.2-0.1c0-0.1,0-0.1,0.1-0.2h-0.1
	c0,0,0,0-0.1,0L34,31.3L34,31.3z M34.1,31.8c0.2,0,0.3-0.2,0.4-0.4C34.3,31.5,34.1,31.7,34.1,31.8z M34.2,18.1L34.2,18.1l0.1-0.1
	v-0.1C34.2,17.9,34.2,18,34.2,18.1L34.2,18.1z M34.8,30.6c-0.1,0-0.2,0.1-0.3,0.1s-0.2,0.1-0.3,0.3C34.4,30.9,34.5,30.8,34.8,30.6z
	 M34.4,18.3c0.3,0,0.4-0.2,0.4-0.4v-0.1l-0.1,0.1h-0.2v-0.1c-0.1,0-0.2,0-0.2,0s0,0-0.1,0.1h0.2c-0.1,0-0.2,0.1-0.2,0.2
	C34.3,18.2,34.4,18.3,34.4,18.3z M34.8,31c0,0.1-0.1,0.1-0.1,0.2c0,0,0,0.1-0.1,0.1s-0.2,0-0.2,0.1l0,0c0,0,0,0,0.1,0
	c0.1-0.1,0.1-0.1,0.2-0.1L34.8,31L34.8,31z M34.9,30.8L34.9,30.8c0.1-0.1,0.1-0.1,0.2-0.1C35,30.7,35,30.8,34.9,30.8L34.9,30.8z
	 M35.7,30L35.7,30c-0.1,0.1-0.1,0.1-0.1,0.2l0.1-0.1V30z M36.2,29.1c0-0.1,0.1-0.2,0.2-0.2v-0.1L36.2,29.1L36.2,29.1z M36.6,28.7
	c0.2-0.1,0.4-0.3,0.4-0.4c-0.2,0.1-0.3,0.2-0.3,0.3L36.6,28.7z M36.9,29C36.9,29,36.8,29,36.9,29C36.8,29,36.8,29.1,36.9,29
	c-0.2,0.2-0.2,0.3-0.3,0.3h0.1c0,0,0.1,0,0.1-0.1L36.9,29z M36.9,28.9c0.1-0.1,0.1-0.1,0.2-0.1L36.9,28.9z M37.4,28.3l-0.2,0.1
	L37.4,28.3z M37.4,28L37.4,28L37.4,28z M37.4,28.3c0.2,0,0.3-0.2,0.4-0.4C37.7,28,37.6,28.1,37.4,28.3z M37.6,27.8
	C37.6,27.8,37.6,27.7,37.6,27.8c0-0.1,0.1-0.1,0.1-0.2l-0.2,0.1v0.2C37.6,27.9,37.6,27.8,37.6,27.8z M38.1,27.3
	c0.2,0,0.4-0.2,0.6-0.4C38.5,26.9,38.3,27.1,38.1,27.3z M39.2,26.7c-0.1,0-0.3,0.1-0.4,0.3C39.1,27,39.2,26.9,39.2,26.7L39.2,26.7z
	 M38.8,26.6c0.2-0.1,0.4-0.2,0.4-0.4c-0.2,0.1-0.3,0.2-0.3,0.3C38.9,26.5,38.8,26.5,38.8,26.6z M39.4,26c0.2-0.1,0.4-0.3,0.4-0.5
	C39.7,25.6,39.5,25.8,39.4,26z M39.7,26.2l-0.1,0.1v0.1L39.7,26.2z M40,25.9L39.8,26h0.1C39.8,26,39.9,25.9,40,25.9L40,25.9z
	 M40,25.4c0.2-0.1,0.3-0.2,0.3-0.4c-0.1,0-0.2,0.1-0.3,0.2V25.4z"/>
<path class="st0" d="M43.4,23.3c-0.6,0.5-1,1.1-1.4,1.7s-0.7,1.2-1,1.9c0,0.1,0,0.2-0.1,0.3c-0.1,0.1-0.1,0.2-0.1,0.3v0.2
	c0,0.2,0,0.4,0.1,0.7c0.1,0.1,0.2,0.3,0.2,0.4c0,0.1,0.1,0.3,0.2,0.4c0.2,0.4,0.3,0.6,0.4,0.8c0.1,0.1,0.3,0.3,0.6,0.6
	c0.3,0.5,0.6,0.9,0.8,1.4c0.2,0.4,0.4,0.9,0.6,1.5v0.2c0,0.1,0.1,0.2,0.2,0.2H44c0,0,0,0,0.1,0c0.1-0.1,0.2-0.1,0.3-0.2
	c0.1-0.1,0.2-0.1,0.2-0.2c0.5-0.5,1.1-0.9,1.6-1.1c0.6-0.3,1.2-0.6,1.8-1c0.8-0.7,1.8-1.2,2.9-1.6c0.1,0,0.3-0.1,0.4-0.1
	c0.3,0,0.6,0.1,0.7,0.3c0,0.1,0,0.1,0,0.2v0.1c0,0.1,0,0.1-0.1,0.1s-0.1,0-0.1,0.1c-0.1,0-0.2,0.1-0.2,0.1c0,0.1-0.1,0.1-0.2,0.1
	c-0.5,0.3-1.1,0.6-1.7,0.9c-0.6,0.4-1.1,0.8-1.6,1.2c-0.6,0.5-1.2,0.8-1.8,1.1c-0.6,0.2-1.2,0.6-1.8,1.1v0.1l-0.1,0.1
	c0,0.1-0.1,0.1-0.2,0.2c-0.2,0.1-0.4,0.3-0.6,0.3c-0.2,0.1-0.3,0.2-0.4,0.4c-0.1,0.1-0.2,0.3-0.2,0.5L42.9,37
	c-0.1,0.3-0.3,0.6-0.5,1c-0.2,0.3-0.4,0.7-0.8,1c-0.3,0.4-0.6,0.8-1,1.2s-0.9,0.7-1.5,1c-0.1,0.1-0.3,0.2-0.5,0.2
	c-0.1,0-0.1,0-0.2,0c0,0-0.1,0-0.2,0c-0.4,0.1-0.8,0.2-1.1,0.2c-0.9,0-1.4-0.4-1.5-1.3c0.1-0.3,0.3-0.7,0.6-1.1
	c0.3-0.4,0.5-0.7,0.7-1c0.3-0.3,0.7-0.5,1.3-0.8c0.6-0.2,1-0.5,1.3-0.8c0.1-0.2,0.3-0.3,0.6-0.4c0.2-0.1,0.4-0.3,0.5-0.5
	c0-0.2,0-0.3,0-0.5c0-0.1,0-0.3,0-0.4c0.1-0.9,0-1.6-0.1-2.2c-0.1-0.6-0.5-1.2-1-1.8c-0.3-0.3-0.5-0.6-0.7-0.8s-0.4-0.5-0.6-1
	c-0.1-0.2-0.3-0.3-0.3-0.5c-0.1-0.1-0.1-0.3-0.2-0.5c-0.1-0.3-0.1-0.7-0.1-1.1c0-0.2,0-0.3,0.1-0.4c0-0.1-0.1-0.2-0.1-0.4l0.2-0.6
	c0.1-0.2,0.2-0.4,0.3-0.6s0.1-0.4,0.2-0.6c0.8-1.3,1.7-2.4,2.8-3.3c0.7-0.6,1.5-1,2.1-1.4c0.7-0.4,1.4-0.6,2.2-0.7h1.3
	c0.3,0,0.6,0.1,0.9,0.3c0.4,0.1,0.7,0.3,1,0.5s0.6,0.4,0.8,0.7c0.2,0.3,0.3,0.6,0.3,0.9v0.2c-0.1,0.5-0.3,1-0.5,1.4
	c-0.2,0.5-0.4,0.8-0.6,1c-0.3,0.4-0.9,0.7-1.6,0.7c-0.1,0-0.2,0-0.2-0.1c0,0,0-0.1,0.1-0.1s0.1-0.1,0.1-0.2c0,0,0-0.1-0.1-0.1
	c0,0-0.1,0-0.1-0.1s0-0.1,0.1-0.2c0.1-0.3,0.2-0.5,0.3-0.7s0.3-0.5,0.5-0.9l0.1-0.1h0.6c-0.1,0-0.2,0-0.2-0.1
	c-0.1-0.7-0.5-1.1-1.2-1.1c-0.5,0-1,0.2-1.7,0.5C44.7,21.9,44.1,22.5,43.4,23.3z M38,38.7c0.2,0,0.4,0,0.6,0c0.2,0,0.3,0,0.4-0.1
	c-0.1,0-0.2,0.1-0.3,0.1s-0.3,0-0.4,0h-0.6l0,0H38z M39.9,24.4C39.8,24.4,39.8,24.4,39.9,24.4L39.9,24.4z M40.4,38.9L40.4,38.9
	c0-0.1,0.1-0.1,0.3-0.2c0,0-0.1,0-0.1-0.1l-0.1-0.1l-0.1,0.2c-0.2,0.2-0.3,0.3-0.3,0.4L40,39.2h0.1l0.1-0.1
	C40.2,39.1,40.3,39.1,40.4,38.9C40.3,39,40.3,38.9,40.4,38.9z M41.6,23.1c-0.1,0-0.1,0.1-0.2,0.1c0,0-0.1,0.1-0.2,0.2
	c-0.1,0.2-0.3,0.4-0.5,0.6s-0.4,0.4-0.6,0.6L40,25.1c0.3-0.4,0.6-0.8,0.9-1C41.2,23.8,41.4,23.5,41.6,23.1z M41.4,24.4l0.1,0.1
	c0,0,0.1-0.1,0.2-0.3c0.1-0.1,0.2-0.3,0.3-0.4c-0.2,0.1-0.3,0.2-0.4,0.3C41.6,24.2,41.5,24.3,41.4,24.4z M42.1,23.5
	c0,0-0.1,0.1-0.1,0.2h0.1l0.1-0.1C42.2,23.7,42.1,23.6,42.1,23.5C42.1,23.6,42.1,23.6,42.1,23.5z"/>
<path class="st0" d="M66,24.8c0,0,0.1-0.1,0.2-0.1s0.2,0.1,0.3,0.2v0.3l-0.8,1.3c-1,1.3-2,2.5-3.1,3.6c-1.1,1.2-2.2,2.3-3.2,3.4
	C58.8,34.2,58,35,57,35.8c-0.6,0.5-1.3,1-1.8,1.4s-1.3,0.7-2,1c-0.2,0.1-0.4,0.1-0.6,0.2c-0.2,0-0.4,0.1-0.6,0.1
	c-0.3,0-0.6-0.1-0.8-0.2c-1-0.5-1.6-1.2-1.9-2.1c-0.1-0.3-0.1-0.7-0.1-1c0-0.4,0-0.7,0-1.1c0.1-0.3,0.2-0.7,0.2-1l0.2-0.8
	c0.1-0.2,0.1-0.4,0.2-0.7c0-0.2,0.1-0.4,0.2-0.7c0.2-0.5,0.4-1,0.6-1.5c0.2-0.5,0.5-1,0.8-1.5l1.1-1.6c0.4-0.6,0.8-1.1,1.2-1.6
	s0.9-1,1.4-1.5c0.2-0.3,0.5-0.5,0.7-0.6s0.5-0.3,0.8-0.5c0.1-0.1,0.4-0.2,0.7-0.2c0.1,0,0.2-0.1,0.4-0.1c0.1,0,0.3,0,0.4,0
	c0.4,0,0.9,0.1,1.4,0.3c0.5,0.3,1,0.8,1.3,1.5l0.2,0.7l-0.1,0.5c0,0.1,0,0.1-0.1,0.2c-0.1,0-0.2,0.1-0.3,0.1c-0.2,0-0.4-0.1-0.5-0.3
	c-0.1-0.1-0.3-0.3-0.4-0.4s-0.3-0.3-0.4-0.4c0,0,0-0.1,0-0.2c-0.1-0.1-0.3-0.2-0.4-0.2c0,0-0.1,0-0.3,0.1c-0.3,0.1-0.7,0.4-1.2,0.8
	c-0.6,0.5-1.2,1.1-1.6,1.8c-0.4,0.7-0.9,1.3-1.3,2c-0.3,0.4-0.5,0.9-0.7,1.4s-0.5,0.9-0.7,1.4c-0.1,0.4-0.3,0.7-0.5,1.1
	c-0.2,0.4-0.3,0.7-0.4,1.1c0,0.1,0,0.2-0.1,0.3s-0.1,0.2-0.1,0.3c-0.1,0.2-0.1,0.4-0.1,0.6c0,0.2,0,0.4-0.1,0.6c0,0.5,0,1,0,1.5v0.1
	c0.1,0.1,0.2,0.2,0.3,0.2h0.2l0.4-0.2c0.9-0.3,1.7-0.7,2.5-1.2s1.5-1,2.2-1.7l2.1-2c0.7-0.7,1.4-1.4,2.1-2.1c0.7-0.7,1.4-1.5,2-2.3
	l2.1-2.4C65.7,24.9,65.8,24.8,66,24.8C65.8,24.5,65.8,24.6,66,24.8z M51.6,28.8C51.6,28.8,51.5,28.7,51.6,28.8
	C51.5,28.8,51.5,28.8,51.6,28.8z M51.6,28.6c0.1,0,0.2-0.1,0.2-0.2v-0.1c-0.1,0.1-0.1,0.1-0.1,0.2C51.7,28.5,51.7,28.6,51.6,28.6z
	 M55.6,23.8c-0.2,0.1-0.3,0.1-0.4,0.2l-0.9,1c-0.5,0.6-1,1.3-1.4,2c-0.4,0.7-0.8,1.4-1.3,2.2v0.2l0.1,0.1l0.1-0.1
	c0-0.1,0.1-0.2,0.2-0.3c0.1-0.1,0.1-0.2,0.2-0.3c0.3-0.6,0.7-1.3,1.1-1.9c0.4-0.6,0.9-1.2,1.3-1.8l0.8-1.1L55.6,23.8z M51.9,28.2
	c0.2-0.1,0.4-0.4,0.5-0.7C52.1,27.6,52,27.9,51.9,28.2z M52.4,27.5c0.1-0.1,0.3-0.4,0.4-0.7c-0.1,0.1-0.2,0.2-0.3,0.3
	c-0.1,0-0.1,0.1-0.1,0.2C52.4,27.3,52.4,27.5,52.4,27.5z M52.8,26.7c0.1,0,0.1-0.1,0.1-0.1s0.1-0.1,0.1-0.2
	C52.9,26.5,52.8,26.6,52.8,26.7z M53.2,26.2c-0.1,0-0.1,0.1-0.1,0.3C53.1,26.4,53.2,26.3,53.2,26.2z M53.2,26.2
	c0.1,0,0.1-0.1,0.1-0.1s0.1-0.1,0.1-0.2C53.3,26,53.2,26.1,53.2,26.2z M53.6,25.6c-0.1,0-0.1,0.1-0.1,0.3
	C53.5,25.8,53.6,25.7,53.6,25.6z M53.9,25.3c-0.1,0.1-0.2,0.2-0.2,0.3C53.8,25.5,53.9,25.4,53.9,25.3z M53.8,27.3L53.8,27.3
	c0-0.1,0.1-0.1,0.1-0.2L53.8,27.3L53.8,27.3z M55.9,24.5c-0.1,0.1-0.1,0.1-0.2,0.1l-0.1,0.1c-0.6,0.7-1.1,1.4-1.6,2.1
	c0,0.1-0.1,0.1-0.1,0.2c0,0-0.1,0.1-0.1,0.2c0-0.1,0.1-0.1,0.2-0.1c0.1,0,0.1-0.1,0.2-0.1c0.5-0.8,1-1.5,1.7-2.1
	C55.9,24.7,55.9,24.6,55.9,24.5l0.5-0.3v-0.1L56.3,24c-0.1,0.1-0.1,0.1-0.2,0.2S55.9,24.4,55.9,24.5z M53.9,25.3
	c0.1,0,0.2-0.1,0.2-0.3L53.9,25.3z M59.1,32.6c0.1-0.1,0.2-0.1,0.3-0.2c0.1-0.1,0.2-0.1,0.2-0.2C59.3,32.2,59.1,32.4,59.1,32.6z
	 M59.6,32.6C59.6,32.6,59.6,32.7,59.6,32.6C59.6,32.7,59.5,32.7,59.6,32.6L59.6,32.6L59.6,32.6z M59.7,32c0.1,0,0.2-0.1,0.2-0.2
	c-0.1,0-0.1,0.1-0.1,0.1C59.7,31.9,59.7,32,59.7,32z M60.1,31.5c0.1,0,0.3-0.2,0.3-0.5c-0.1,0-0.1,0.1-0.2,0.2
	C60.2,31.4,60.1,31.5,60.1,31.5z M60.6,30.9c0.1,0,0.1-0.1,0.2-0.1s0.1,0,0.1-0.1C60.7,30.8,60.6,30.8,60.6,30.9z M61,30.5
	c0.1-0.1,0.3-0.2,0.4-0.3c-0.1,0-0.2,0.1-0.3,0.1C61.1,30.4,61,30.5,61,30.5z M61.7,30c0.1-0.1,0.1-0.2,0.1-0.3
	C61.7,29.7,61.7,29.8,61.7,30z M61.9,30.3c-0.1,0.1-0.2,0.2-0.2,0.3C61.8,30.5,61.9,30.4,61.9,30.3z M61.8,29.7
	c0.3-0.1,0.4-0.2,0.4-0.4C62,29.3,61.9,29.4,61.8,29.7z M62.2,30C62.2,30,62.1,30,62.2,30L62.2,30z M62.2,29.2
	c0.3-0.1,0.5-0.3,0.6-0.4c-0.1,0-0.2,0.1-0.3,0.2C62.5,29,62.3,29.1,62.2,29.2z M62.6,29.4c-0.1,0-0.3,0.2-0.4,0.4
	c0.1-0.1,0.2-0.1,0.3-0.2C62.6,29.6,62.6,29.5,62.6,29.4z M63,29.1c-0.1,0.1-0.2,0.1-0.3,0.2c0,0,0,0.1-0.1,0.2
	c0.1-0.1,0.1-0.1,0.2-0.2C62.9,29.2,62.9,29.2,63,29.1z M62.8,28.8C62.9,28.8,62.9,28.7,62.8,28.8c0.1-0.2,0.2-0.2,0.2-0.3
	C62.9,28.6,62.8,28.7,62.8,28.8z M63,28.5c0.1,0,0.3-0.2,0.4-0.4C63.2,28.1,63,28.2,63,28.5z M63.4,28.7c-0.1,0.1-0.1,0.1-0.1,0.2
	L63.4,28.7z M63.4,28.7c0.1-0.1,0.2-0.2,0.2-0.3L63.4,28.7z M63.5,28.1c0.1,0,0.1-0.1,0.1-0.3C63.5,27.8,63.5,27.9,63.5,28.1z
	 M63.6,27.8c0.2-0.1,0.5-0.4,0.7-0.8c-0.2,0.1-0.4,0.2-0.5,0.3C63.8,27.4,63.7,27.6,63.6,27.8z M64.3,27c0.1-0.1,0.2-0.2,0.2-0.3
	C64.5,26.7,64.4,26.8,64.3,27z M64.3,27.6c0.1-0.1,0.2-0.2,0.2-0.3L64.3,27.6z M64.6,26.7c0.1,0,0.1-0.1,0.1-0.1s0.1-0.1,0.1-0.2
	C64.6,26.4,64.6,26.5,64.6,26.7z M64.8,26.4c0.1,0,0.2-0.1,0.2-0.3C64.9,26.2,64.8,26.3,64.8,26.4z M65.3,25.7
	c0.1,0,0.1-0.1,0.1-0.3C65.4,25.5,65.3,25.6,65.3,25.7z M65.4,25.4c0.2,0,0.3-0.1,0.3-0.3C65.6,25.2,65.5,25.3,65.4,25.4z
	 M65.5,26.1l0.3-0.3v-0.1h-0.1L65.5,26.1z"/>
<path class="st0" d="M67,36.9c-0.2,0-0.5-0.1-0.7-0.1c-0.3-0.1-0.5-0.1-0.7-0.3L65,36.3c-0.3-0.1-0.5-0.2-0.7-0.3s-0.4-0.2-0.6-0.4
	c-0.5-0.4-0.7-0.9-0.7-1.3c0-0.2,0-0.3,0-0.5c0-0.1,0-0.3,0-0.4v-0.1c0-0.3,0-0.4,0.1-0.6c0-0.2,0-0.4,0.1-0.6
	c-0.1-0.1-0.1-0.2-0.1-0.3v-0.1c0,0,0,0,0-0.1c0.1-0.1,0.1-0.3,0.1-0.5c0.1,0,0.2-0.1,0.2-0.2l0.3-1.2c0-0.1,0-0.2,0.1-0.3
	c0-0.1,0.1-0.2,0.1-0.3c0.1-0.4,0.1-0.6,0.1-0.7c0.1-0.3,0.3-0.6,0.4-0.9c0.1-0.3,0.3-0.6,0.4-0.9c0.1-0.2,0.2-0.4,0.3-0.6
	c0.1-0.2,0.2-0.4,0.3-0.6c0.1-0.1,0.1-0.1,0.1-0.2s0-0.1,0.1-0.2l0.1-0.1c0.2-0.3,0.4-0.6,0.6-0.9s0.4-0.6,0.6-0.9
	c0.2-0.2,0.4-0.4,0.6-0.6s0.4-0.5,0.6-0.6l0.5-0.3c0.1-0.1,0.4-0.2,0.7-0.2c0.1,0,0.3,0,0.4,0.1H70c0.1,0,0.3,0.1,0.4,0.2
	c0,0,0,0.1,0.1,0.1l0.1,0.1c0,0,0.1,0.1,0.1,0.3l-0.1,0.1c-0.2,0.1-0.3,0.3-0.4,0.5s-0.2,0.3-0.3,0.5c-0.2,0.4-0.4,0.7-0.6,1.1
	s-0.4,0.7-0.6,1c-0.1,0.2-0.2,0.4-0.3,0.6c-0.1,0.2-0.1,0.4-0.2,0.6c-0.1,0.3-0.3,0.7-0.4,1c-0.1,0.4-0.3,0.7-0.5,1
	c0,0.1-0.1,0.3-0.1,0.4c0,0.1,0,0.3-0.1,0.5c-0.1,0.3-0.2,0.5-0.3,0.8c-0.1,0.2-0.1,0.5-0.3,0.8L66.1,33c0,0.1-0.1,0.2-0.1,0.3v0.3
	V34c-0.1,0.3-0.1,0.6,0.1,0.8c0,0.1,0,0.2,0.1,0.3c0,0.1,0.1,0.2,0.1,0.3l0.2,0.2c0.1,0.1,0.3,0.2,0.4,0.2s0.3-0.1,0.4-0.2
	c0.1-0.1,0.2-0.1,0.3-0.2c0.1-0.1,0.2-0.1,0.3-0.2c0.7-0.7,1.2-1.4,1.6-2.2l0.8-1.3c0.1-0.2,0.2-0.4,0.3-0.7
	c0.1-0.3,0.2-0.5,0.3-0.8c0-0.1,0.1-0.3,0.1-0.4c0.1-0.1,0.1-0.3,0.1-0.4l0.1-0.3c0-0.1-0.1-0.2-0.3-0.2c-0.2-0.1-0.4-0.2-0.5-0.3
	s-0.3-0.2-0.5-0.3l-0.2-0.2c-0.2-0.1-0.3-0.2-0.2-0.4c0-0.1,0-0.2,0.1-0.2v-0.2c0.1-0.3,0.3-0.6,0.5-0.8c0.3-0.2,0.6-0.4,1-0.5
	c0.1-0.1,0.4-0.1,0.8-0.1c0.1,0,0.2,0,0.2,0h0.1c0.1,0,0.2,0,0.3,0c0.1,0,0.1,0,0.2,0.1c0.3,0.2,0.4,0.4,0.4,0.7
	c0,0.1,0.1,0.3,0.1,0.4s0,0.2,0.1,0.3c0,0-0.1,0.1-0.1,0.2l-0.1,0.1c0,0.1,0.1,0.2,0.2,0.2c0.3-0.1,0.7-0.1,1-0.2
	c0.3-0.1,0.7-0.1,1-0.2c0.5-0.1,1-0.3,1.4-0.5c0.2-0.1,0.4-0.2,0.6-0.3c0.2-0.1,0.3-0.2,0.5-0.3l0.4-0.3c0.1-0.1,0.2-0.2,0.4-0.2
	h0.2c0,0,0,0.1,0.1,0.1H79v0.1c0,0,0.1,0,0.1-0.1c0,0,0-0.1,0.1-0.1h0.1c0,0,0.1,0.1,0.1,0.2v0.1v0.1l0,0l0.1-0.1
	c0,0,0.1-0.1,0.2-0.1s0.1,0,0.1,0.1v0.1c0,0,0,0,0,0.1c-0.1,0.1-0.2,0.1-0.2,0.2c-0.1,0-0.2,0.1-0.2,0.2c-0.4,0.3-0.9,0.6-1.5,0.9
	c-0.3,0.2-0.5,0.3-0.8,0.4c-0.3,0.1-0.6,0.2-0.9,0.3c-0.4,0.1-0.7,0.1-1.1,0.2c-0.4,0.1-0.7,0.1-1.1,0.1c-0.1,0-0.2,0.1-0.4,0.1
	c-0.1,0-0.3,0-0.4,0c-0.2,0-0.3,0.1-0.3,0.3c-0.1,0.3-0.3,0.7-0.3,1c-0.1,0.3-0.2,0.6-0.4,1c-0.1,0.4-0.3,0.7-0.4,1.1
	c-0.1,0.3-0.3,0.7-0.4,1c-0.2,0.3-0.4,0.7-0.6,1s-0.4,0.7-0.7,1c-0.1,0.1-0.2,0.3-0.3,0.4c-0.1,0.1-0.3,0.3-0.3,0.5
	c-0.3,0.3-0.6,0.5-1,0.6c-0.4,0.2-0.8,0.3-1.2,0.3L67,36.9L67,36.9z M67.3,23.8c-0.6,0.7-1.1,1.5-1.4,2.2s-0.7,1.5-1,2.2
	c-0.1,0.2-0.2,0.4-0.2,0.5s-0.1,0.3-0.1,0.5c-0.1,0.2-0.1,0.4-0.2,0.6c0,0.2-0.1,0.4-0.2,0.6c0,0.1-0.1,0.2-0.1,0.3S64,30.9,64,31
	l-0.1,0.7l0.1-0.2l0.1-0.5c0.1-0.2,0.1-0.3,0.1-0.4c0-0.1,0-0.2,0.1-0.3l0.1-0.4c0.1-0.3,0.2-0.5,0.3-0.8c0.1-0.3,0.2-0.6,0.3-0.9
	c0.3-0.8,0.6-1.5,1.1-2.3c0.1-0.3,0.3-0.7,0.5-1.1s0.5-0.8,0.8-1.1c0-0.1,0-0.1,0-0.2c0,0,0-0.1,0-0.2l0.1-0.1l-0.1,0.1
	C67.4,23.6,67.3,23.7,67.3,23.8z M68.8,22.2c-0.3,0.3-0.6,0.7-0.8,1.1c-0.5,0.7-1,1.4-1.4,2.2c-0.4,0.7-0.7,1.5-1,2.2
	c-0.1,0.4-0.3,0.9-0.5,1.3c-0.1,0.3-0.2,0.6-0.3,0.8c-0.1,0.3-0.1,0.5-0.2,0.7c-0.1,0.3-0.1,0.5-0.2,0.7c0,0.2-0.1,0.4-0.2,0.6V32
	l0.1,0.1V32c0.1-0.3,0.2-0.6,0.3-1c0.1-0.3,0.2-0.5,0.2-0.7s0.1-0.4,0.2-0.6c0.1-0.4,0.3-0.9,0.5-1.3c0.2-0.4,0.3-0.9,0.5-1.3
	c0.1-0.4,0.3-0.8,0.6-1.3c0.2-0.4,0.5-0.9,0.7-1.3c0.3-0.4,0.6-0.8,0.8-1.1c0.2-0.4,0.5-0.7,0.8-1.1c0.1-0.1,0.2-0.2,0.2-0.2L69,22
	L68.8,22.2z M68,22.8c-0.3,0.1-0.4,0.3-0.4,0.4c0.1-0.1,0.2-0.1,0.3-0.2C68,23,68,22.9,68,22.8z M69.4,22.3
	c-0.1,0.1-0.1,0.3-0.2,0.3c-0.6,0.6-1.1,1.4-1.4,2.2v0.1V25l0.1-0.1c0.3-0.4,0.5-0.9,0.8-1.2c0.3-0.4,0.5-0.8,0.8-1.2
	c0.1,0,0.1-0.1,0.1-0.1L69.4,22.3z M69.3,34.4c0.1-0.1,0.3-0.3,0.4-0.5c0.4-0.5,0.7-1.1,1-1.7c0.3-0.6,0.5-1.1,0.8-1.7
	c0-0.1,0.1-0.2,0.1-0.3l0.1-0.1l-0.3,0.2c-0.1,0.2-0.1,0.4-0.2,0.6c-0.1,0.2-0.1,0.4-0.2,0.6c-0.2,0.4-0.4,0.8-0.6,1.3
	c-0.2,0.4-0.5,0.8-0.8,1.3L69.3,34.4z M69.9,34.5L69.9,34.5c0.1-0.1,0.2-0.1,0.2-0.2c0,0,0.1-0.1,0.1-0.2c0.2-0.3,0.4-0.6,0.5-1
	s0.3-0.7,0.5-1v-0.2h-0.1l-0.4,0.7c-0.1,0.3-0.3,0.5-0.4,0.8C70.2,33.9,70.1,34.2,69.9,34.5z M69.9,33.1c0,0,0.1-0.1,0.1-0.2
	C69.9,32.9,69.9,32.9,69.9,33.1z M70.3,32.3c-0.2,0.2-0.3,0.4-0.3,0.6C70.1,32.8,70.2,32.6,70.3,32.3z M70,27.1L70,27.1
	C70.2,27.1,70.1,27.1,70,27.1L70,27.1z M70.7,26.7h-0.2l-0.3,0.4c0,0,0,0.1,0.1,0.1h0.1L70.7,26.7z M70.4,32
	C70.3,32,70.3,32.1,70.4,32l-0.1,0.2C70.4,32.2,70.4,32.2,70.4,32z M70.7,31.7c-0.1,0.1-0.2,0.1-0.2,0.2L70.4,32
	c0.1-0.1,0.1-0.1,0.1-0.2C70.6,31.8,70.6,31.8,70.7,31.7z M70.8,31.4c-0.1,0.1-0.1,0.1-0.1,0.2v0.1l0.1-0.1V31.4z M70.9,31
	c0,0-0.1,0.1-0.1,0.2l-0.1,0.2l0.1-0.1L70.9,31L70.9,31z M71,30.7L71,30.7c-0.1,0.1-0.1,0.1-0.1,0.2c0,0,0,0.1,0,0.2
	C71,30.9,71,30.8,71,30.7L71,30.7z M71,27.2l0.2-0.2h-0.1L71,27.2L71,27.2z"/>
<path class="st0" d="M91.9,15c0,0,0.1,0.1,0.1,0.2l-0.3,0.3c-0.6,0.4-1.2,0.9-1.6,1.5s-0.8,1.2-1.1,1.8c-0.5,0.7-1,1.5-1.4,2.3
	s-0.8,1.6-1.2,2.4c-0.6,1.2-1.2,2.5-1.8,3.7c-0.6,1.2-1.1,2.5-1.7,3.7c-0.3,0.5-0.6,1-0.8,1.5c-0.2,0.5-0.5,0.9-0.6,1.4
	c-0.2,0.5-0.4,1-0.6,1.5s-0.4,1-0.7,1.5c0,0.1,0,0.2-0.1,0.4c-0.3,0.2-0.5,0.3-0.6,0.3s-0.2,0-0.3-0.1c-0.3-0.1-0.6-0.2-0.8-0.3
	c-0.2-0.1-0.5-0.2-0.8-0.3s-0.4-0.3-0.4-0.6c0-0.2-0.1-0.5-0.1-0.7s0-0.5,0-0.7c0-0.5,0-1,0-1.4s0-0.9,0-1.3v-0.2
	c0-0.1,0.1-0.1,0.1-0.2c0-0.1,0-0.1,0.1-0.2v-0.6l0.1-1c0-0.2,0.1-0.4,0.1-0.6c0.1-0.2,0.1-0.5,0.1-0.7c0-0.1,0-0.1,0-0.2
	c0-0.1,0-0.1,0-0.2c0-0.1-0.1-0.2-0.1-0.4l0.1-0.2c0-0.1,0-0.3,0.1-0.4s0.1-0.2,0.1-0.4c0.1-0.2,0.1-0.4,0.1-0.6s0-0.4,0.1-0.6
	c0-0.2,0.1-0.4,0.2-0.5s0.1-0.3,0.1-0.4l0.2-1.5c0-0.1,0-0.2,0.1-0.3c0.1-0.3,0.2-0.6,0.3-0.8c0.1-0.2,0.2-0.5,0.2-0.8
	c0.1-0.2,0.1-0.4,0.2-0.5c0.1-0.2,0.1-0.3,0.2-0.5s0.2-0.3,0.4-0.3h0.2c0.2,0.1,0.4,0.1,0.4,0.2c0.1,0,0.1,0,0.2-0.1h0.1
	c0,0,0,0,0.1,0s0.1,0,0.1,0.1c0.2,0.1,0.3,0.2,0.3,0.2c0.1,0.1,0.2,0.2,0.2,0.3c0,0.1,0,0.3,0,0.4s0,0.3,0,0.4
	c-0.1,0.3-0.1,0.7-0.2,1s-0.1,0.7-0.2,1h0.1c0,0.4-0.1,0.7-0.2,1.1s-0.1,0.7-0.2,1.1l-0.1,0.7c0,0.3-0.1,0.6-0.1,0.8
	c0,0.2-0.1,0.5-0.1,0.8c0,0.1,0,0.3-0.1,0.4c0,0.1-0.1,0.3-0.1,0.4c-0.1,0.7-0.2,1.4-0.2,2.1V31l0.1,0.1c0.1,0,0.2,0,0.2-0.1
	l1.1-2.2l2.3-5c0.4-0.8,0.8-1.6,1.2-2.3c0.4-0.8,0.9-1.5,1.3-2.3c0.6-1,1.2-2,1.8-2.8c0.2-0.3,0.4-0.5,0.6-0.7s0.4-0.4,0.7-0.7
	c0.1-0.1,0.2-0.2,0.3-0.3c0.1-0.1,0.3-0.2,0.5-0.4c0.3-0.1,0.5-0.2,0.6-0.2s0.3,0,0.3,0.1c0.1,0,0.2,0.1,0.3,0.1
	c0.1,0,0.2,0,0.2,0.1C91.6,14.9,91.7,15,91.9,15z M79.9,34.2c0.1-0.1,0.1-0.2,0.2-0.3s0.1-0.2,0.1-0.3l0.9-2l2.9-6
	c0.7-1.4,1.4-2.8,2.1-4.1c0.7-1.4,1.5-2.7,2.4-4l0.2-0.4c-0.1,0-0.2,0.1-0.3,0.2c-0.1,0.1-0.2,0.2-0.3,0.3C88,17.8,88,18,87.9,18.1
	s-0.2,0.3-0.4,0.4c-0.1,0.2-0.2,0.4-0.3,0.6c-0.1,0.1-0.2,0.3-0.4,0.5c0,0.3-0.2,0.6-0.5,0.8c0,0.2-0.1,0.4-0.2,0.5
	c0,0.1-0.1,0.2-0.1,0.4c-0.1,0.1-0.2,0.3-0.3,0.4c-0.1,0.2-0.1,0.4-0.2,0.4l-0.2,0.6l-1.8,3.4c0,0.1,0,0.2-0.1,0.3
	c-0.1,0.1-0.1,0.1-0.1,0.2s-0.1,0.2-0.1,0.3c0,0.1-0.1,0.1-0.1,0.2c-0.2,0.6-0.4,1.1-0.8,1.5c0,0,0-0.1-0.1-0.1c0,0.1,0,0.1,0.1,0.1
	c0,0.2-0.1,0.5-0.2,0.8s-0.2,0.5-0.4,0.6v-0.3l-0.1-0.1l-0.1,0.1c0,0,0,0.1,0.1,0.2c0,0.1-0.1,0.1-0.1,0.2c0,0.1-0.1,0.1-0.2,0.2
	l0.1-0.1v-0.1v0.2c0,0.4-0.1,0.7-0.4,1l0.1-0.1H81v0.1c0,0.1,0,0.2,0,0.3s-0.1,0.2-0.3,0.3c0-0.1,0-0.1,0.1-0.2c0,0,0-0.1-0.1-0.1
	v0.1c0,0,0,0,0,0.1c-0.1,0.1-0.1,0.1-0.1,0.2c-0.2,0-0.2,0.1-0.2,0.1c0,0.1,0,0.1,0.1,0.2c-0.1,0.1-0.1,0.3-0.1,0.4
	s-0.1,0.3-0.1,0.4c-0.1,0.2-0.2,0.4-0.3,0.5c-0.1,0.2-0.1,0.3-0.3,0.5L79.9,34.2L79.9,34.2z M81,33.2c0-0.1,0.1-0.1,0.1-0.2
	c0-0.1,0-0.1,0.1-0.2L81,33c0,0.1-0.1,0.3-0.1,0.4s-0.1,0.2-0.2,0.4l-0.8,2v0.1l0.1-0.1l0.1-0.1c0,0,0-0.1,0.1-0.1
	c0.2-0.4,0.3-0.8,0.5-1.2C80.7,34,80.8,33.6,81,33.2z M80.2,32.7L80.2,32.7L80.2,32.7L80.2,32.7z M81.1,30.6L81.1,30.6L81.1,30.6
	L81.1,30.6z M81.1,32.8c0.1-0.1,0.1-0.2,0.1-0.3s0-0.2,0.1-0.3C81.2,32.3,81.1,32.5,81.1,32.8z M81.4,32.2c0.2-0.2,0.4-0.4,0.5-0.7
	s0.3-0.6,0.4-0.9c-0.2,0.2-0.4,0.5-0.6,0.8C81.5,31.6,81.4,31.9,81.4,32.2z M82.2,30.5c0.2-0.2,0.4-0.6,0.4-1.1
	c-0.1,0.2-0.3,0.4-0.3,0.5S82.3,30.3,82.2,30.5z M82.7,29.4c0.2-0.1,0.3-0.3,0.3-0.4C82.8,29,82.7,29.2,82.7,29.4z M82.9,26.8
	l0.1,0.1L82.9,26.8L82.9,26.8z M83,28.9C83.1,28.9,83.1,28.8,83,28.9c0.1-0.2,0.1-0.2,0.2-0.3v-0.3c-0.1,0.1-0.1,0.1-0.1,0.2
	s0,0.1-0.1,0.2V28.9z M83.3,26.3C83.2,26.3,83.2,26.3,83.3,26.3c-0.1,0.1,0,0.1,0,0.1V26.3L83.3,26.3z M83.3,28.2
	c0.1-0.1,0.2-0.3,0.2-0.4c-0.1,0.1-0.1,0.1-0.1,0.2C83.4,28,83.3,28.1,83.3,28.2z M83.5,27.7c0.2-0.1,0.3-0.3,0.3-0.4
	C83.6,27.4,83.5,27.5,83.5,27.7z M83.8,27.3c0.1-0.1,0.2-0.3,0.2-0.4v-0.2c-0.1,0.1-0.1,0.2-0.1,0.3C83.9,27,83.8,27.1,83.8,27.3z
	 M84,26.6c0.1,0,0.2-0.2,0.3-0.4c-0.1,0.1-0.2,0.1-0.2,0.2C84.1,26.4,84,26.5,84,26.6z M84.3,26.1c0.1,0,0.2-0.2,0.2-0.4
	C84.4,25.7,84.4,25.8,84.3,26.1z M84.5,25.7c0.2-0.2,0.3-0.4,0.3-0.5C84.6,25.3,84.5,25.5,84.5,25.7z M84.8,25.2
	c0.1-0.1,0.3-0.3,0.3-0.4c0.1-0.1,0.1-0.3,0.2-0.5c-0.2,0.1-0.3,0.3-0.4,0.4S84.8,25,84.8,25.2z M85.3,24.3c0.1-0.1,0.1-0.2,0.1-0.3
	c0-0.1,0-0.2,0.1-0.3C85.3,23.8,85.3,24,85.3,24.3z M85.4,22L85.4,22L85.4,22L85.4,22z M85.5,23.8c0.3-0.4,0.6-0.9,0.7-1.5
	c-0.2,0.2-0.3,0.4-0.4,0.7C85.7,23.2,85.6,23.5,85.5,23.8z M86.2,20.6v0.1V20.6L86.2,20.6z M86.2,22.3c0.1-0.1,0.2-0.2,0.3-0.3
	c0-0.1,0-0.2,0.1-0.3c-0.1,0.1-0.2,0.1-0.3,0.2C86.2,22.1,86.2,22.2,86.2,22.3z M86.5,21.8c0.1-0.1,0.2-0.2,0.3-0.3
	c0-0.1,0.1-0.3,0.1-0.4c-0.1,0.1-0.2,0.2-0.3,0.3C86.6,21.5,86.5,21.6,86.5,21.8z M86.9,21c0.1-0.1,0.2-0.1,0.3-0.2
	c0-0.1,0-0.1,0.1-0.2c-0.1,0.1-0.2,0.1-0.2,0.2C87,20.9,87,20.9,86.9,21z M87.2,20.5c0.1-0.1,0.3-0.4,0.4-0.7
	C87.4,20,87.2,20.2,87.2,20.5z M87.7,19.8c0.1-0.1,0.2-0.3,0.3-0.4c0-0.1,0.1-0.3,0.2-0.4c-0.2,0.1-0.3,0.2-0.3,0.3
	C87.8,19.4,87.7,19.6,87.7,19.8z M88.1,18.9c0.1,0,0.1-0.1,0.1-0.1c0-0.1,0-0.1,0.1-0.2C88.2,18.6,88.1,18.8,88.1,18.9z M88.4,18.6
	c0.1-0.1,0.2-0.2,0.2-0.3C88.4,18.4,88.4,18.5,88.4,18.6z M88.5,18.2c0.1-0.1,0.3-0.2,0.4-0.4c0.1-0.1,0.2-0.3,0.3-0.5
	c-0.2,0.1-0.4,0.2-0.4,0.3C88.7,17.9,88.6,18,88.5,18.2z M89,16.6c0,0-0.1,0.1-0.2,0.3C88.9,16.9,89,16.8,89,16.6z M89.2,16.4
	c-0.1,0-0.1,0.1-0.1,0.1s0,0-0.1,0.1L89.2,16.4z M89.2,17.4c0.1,0,0.2-0.1,0.2-0.3L89.2,17.4z M89.6,16.7c-0.1,0.1-0.1,0.1-0.2,0.2
	c0,0-0.1,0.1-0.1,0.2c0-0.1,0.1-0.1,0.1-0.2C89.6,16.8,89.6,16.8,89.6,16.7z"/>
<path class="st0" d="M101.3,26.7c0,0.3,0,0.6,0,0.8c-0.1,0.6-0.3,1.2-0.6,1.7c-0.3,0.5-0.7,1-1,1.4c-0.4,0.4-0.7,0.8-1,1
	c-0.3,0.3-0.4,0.5-0.4,0.5s0,0.1,0.1,0.1h0.1c-0.4,0.5-1,1.1-1.5,1.7c-0.6,0.6-1.1,1.1-1.5,1.5c-0.6,0.5-1.2,1-1.8,1.4
	c-0.7,0.4-1.4,0.7-2.1,0.9c-0.3,0.1-0.5,0.1-0.7,0.2c-0.2,0-0.5,0.1-0.7,0.1c-0.8,0-1.4-0.2-2-0.6c-0.4-0.3-0.7-0.6-1-0.9
	c-0.3-0.3-0.6-0.7-0.8-1.1c-0.2-0.4-0.3-0.9-0.3-1.2c0-0.1,0-0.3,0-0.4c0-0.1,0-0.3,0.1-0.5c0-0.2,0.1-0.3,0.1-0.5
	c0-0.1,0-0.3,0.1-0.5l0.1-1.3c0.1-0.3,0.2-0.7,0.3-1c0.1-0.3,0.2-0.6,0.3-0.9v-0.3c0.1-0.1,0.1-0.1,0.1-0.2v-0.1v-0.1v-0.1
	c0,0,0,0,0-0.1l0.2-0.2c0.1-0.1,0.1-0.1,0.2-0.2c0.1-0.1,0.1-0.1,0.2-0.2c0.2-0.3,0.4-0.7,0.6-1c0.2-0.4,0.4-0.7,0.7-1
	c0.5-0.8,1.2-1.6,2-2.4c0.5-0.6,1.1-1,1.7-1.4c0.3-0.3,0.6-0.4,1-0.4c0.2,0,0.3-0.1,0.5-0.1c0.1,0,0.3,0,0.4,0
	c0.6,0,1.2,0.1,1.8,0.4c0.7,0.4,1,1,0.8,1.7v0.2c-0.1,0.5-0.3,1.1-0.7,1.7c-0.3,0.4-0.6,0.9-0.9,1.3s-0.7,0.8-1.1,1.1
	c-0.5,0.4-1.1,0.7-1.6,1s-1.1,0.5-1.6,0.6l-0.7,0.2c-0.2,0-0.4,0.2-0.6,0.5l-1,4.3v0.2c0,0.3,0,0.7,0.1,1.2c0,0.3,0.2,0.5,0.6,0.5
	h0.4c0.5-0.1,1-0.3,1.6-0.4c0.5-0.2,1-0.4,1.5-0.7s1-0.6,1.4-1s0.9-0.7,1.3-1.1c0.3-0.2,0.6-0.5,1-0.8s0.8-0.6,1.1-0.9
	c0.4-0.4,0.8-0.8,1.1-1.2c0.3-0.4,0.7-0.8,1-1.2c0.2-0.3,0.4-0.6,0.6-0.9C100.9,27.3,101.1,27,101.3,26.7z M88.9,26.9l0.1-0.1
	C89,26.8,89,26.8,88.9,26.9C89,26.8,88.9,26.8,88.9,26.9L88.9,26.9z M89,26.7c0.3-0.2,0.4-0.4,0.4-0.7C89.3,26.1,89.1,26.4,89,26.7z
	 M90,26.3c0.4-0.6,0.8-1.1,1.1-1.7c0.4-0.5,0.8-1.1,1.4-1.6v-0.2l-0.2,0.1c-0.1,0.1-0.2,0.2-0.3,0.3c-0.1,0.1-0.2,0.2-0.3,0.3
	c-0.4,0.4-0.7,0.8-1.1,1.3c-0.3,0.4-0.7,0.9-1,1.4c-0.1,0.2-0.2,0.4-0.3,0.5c-0.1,0.2-0.1,0.4-0.2,0.6l0.3-0.4
	c0.1-0.1,0.1-0.2,0.2-0.3C89.8,26.5,89.9,26.4,90,26.3z M89.7,25.7c-0.1,0-0.1,0.1-0.1,0.1s-0.1,0.1-0.1,0.2
	C89.6,26,89.7,25.9,89.7,25.7z M90.3,24.8c-0.2,0.1-0.3,0.2-0.4,0.4c-0.1,0.1-0.1,0.3-0.2,0.5C90,25.4,90.2,25.1,90.3,24.8
	c0.1-0.1,0.2-0.2,0.2-0.3C90.4,24.6,90.3,24.7,90.3,24.8z M90.9,24.1c-0.2,0.1-0.3,0.3-0.4,0.4C90.7,24.5,90.9,24.3,90.9,24.1z
	 M91.2,23.8c-0.1,0-0.2,0.1-0.2,0.3L91.2,23.8z M91.2,25.6c0,0,0.1-0.1,0.1-0.2v0.1C91.2,25.5,91.2,25.5,91.2,25.6L91.2,25.6z
	 M94.6,23.1c-0.2,0.1-0.4,0.2-0.6,0.4c-0.2,0.1-0.3,0.3-0.5,0.4c-0.4,0.4-0.8,0.9-1.1,1.4c-0.3,0.5-0.6,1-0.9,1.5
	c0,0-0.1,0.1-0.1,0.2l-0.1,0.1c0,0.1,0.1,0.1,0.2,0.1c0.2-0.1,0.3-0.1,0.4-0.2s0.2-0.1,0.3-0.2c0.4-0.3,0.9-0.7,1.3-1.1
	s0.7-0.8,1-1.3c0.3-0.4,0.5-0.9,0.6-1.2v-0.1c0-0.1-0.1-0.2-0.2-0.2h-0.1L94.6,23.1z M91.3,23.6c0.1-0.1,0.1-0.2,0.1-0.3L91.3,23.6z
	 M91.3,25.4c0.1,0,0.2-0.1,0.2-0.3C91.5,25.2,91.4,25.3,91.3,25.4z M93.3,23.1c-0.1,0-0.1,0-0.2,0.1c-0.3,0.3-0.6,0.6-0.9,0.9
	s-0.5,0.7-0.7,1.1c0.1,0,0.2-0.1,0.2-0.2c0.3-0.3,0.5-0.6,0.8-0.8c0.3-0.3,0.5-0.5,0.8-0.8C93.3,23.4,93.3,23.1,93.3,23.1z M95,24.8
	L94.8,25c-0.1,0.1-0.1,0.2-0.1,0.3h0.1c-0.1,0.1-0.2,0.3-0.3,0.6c0,0.1-0.1,0.1-0.2,0.1s-0.1,0.1-0.2,0.1v0.1h0.1
	c0.1,0,0.1-0.1,0.2-0.1c0,0,0.1-0.1,0.2-0.2s0.3-0.2,0.4-0.4c0.1-0.1,0.2-0.3,0.3-0.4c0.1-0.1,0.1-0.2,0.1-0.3c0-0.1,0-0.2,0.1-0.3
	c-0.1,0-0.2,0-0.2,0.1s-0.1,0.2-0.1,0.2L95,24.9C95,24.9,94.9,24.9,95,24.8L95,24.8z M94.6,26.5L94.6,26.5
	C94.7,26.5,94.7,26.5,94.6,26.5c0.1,0,0.1,0,0.2,0H94.6L94.6,26.5z M95.4,25.6c-0.3,0.1-0.5,0.4-0.6,0.7
	C95.1,26.2,95.3,25.9,95.4,25.6z M95.6,25.4c-0.1,0-0.1,0.1-0.2,0.2h0.1c0,0,0,0,0.1,0C95.5,25.5,95.6,25.4,95.6,25.4z M96.2,33.3
	c0,0,0.1-0.1,0.2-0.1c0.1-0.1,0.2-0.1,0.2-0.2L96.2,33.3L96.2,33.3L96.2,33.3z M96.9,33.4C96.9,33.4,96.9,33.3,96.9,33.4l-0.3,0.1
	C96.7,33.4,96.8,33.4,96.9,33.4z M97.1,32.5C97,32.6,97,32.7,97,32.8L97.1,32.5z M97.1,33.2c0.1,0,0.2-0.1,0.2-0.3
	C97.1,33,97.1,33.1,97.1,33.2z M97.3,32.9c0.1,0,0.2-0.1,0.3-0.2l-0.1,0.1C97.4,32.8,97.3,32.8,97.3,32.9z M97.4,32.3
	c0.1,0,0.2-0.1,0.3-0.2c0.1-0.1,0.1-0.2,0.2-0.3C97.6,31.9,97.5,32.1,97.4,32.3z M97.5,32.7c0.1-0.1,0.2-0.1,0.3-0.2
	c0.1-0.1,0.1-0.1,0.2-0.3c-0.1,0.1-0.2,0.1-0.3,0.2C97.6,32.5,97.6,32.5,97.5,32.7z M97.9,31.8c0.1,0,0.3-0.2,0.5-0.5
	C98.2,31.3,98,31.5,97.9,31.8z M98.2,31.9c-0.1,0.1-0.1,0.2-0.2,0.3L98.2,31.9z M98.4,31.3c0.2-0.1,0.3-0.2,0.3-0.4
	C98.5,30.9,98.4,31.1,98.4,31.3z M98.7,30.8c0.2-0.1,0.3-0.2,0.4-0.3s0.2-0.3,0.3-0.5c-0.1,0.1-0.3,0.2-0.4,0.4
	C99,30.5,98.9,30.6,98.7,30.8z M99.1,30.9c-0.1,0.1-0.2,0.2-0.2,0.3L99.1,30.9z M99.2,30.9L99.2,30.9c0.2-0.1,0.2-0.2,0.2-0.3
	L99.2,30.9z M99.5,30c0,0,0.1-0.1,0.2-0.3h-0.1l-0.1,0.1V30z M99.7,29.7c0.2,0,0.3-0.1,0.3-0.3h-0.2L99.7,29.7z M100.4,28.6
	c-0.3,0.3-0.4,0.5-0.5,0.7v0.1c0.1-0.1,0.2-0.2,0.3-0.3S100.4,28.8,100.4,28.6z M100.4,28.6c0.2,0,0.3-0.1,0.3-0.2l-0.1-0.1v-0.1
	h-0.1l0.1,0.1C100.6,28.5,100.6,28.6,100.4,28.6z"/>
<path class="st0" d="M112.5,22.3c0,0.1,0,0.1-0.1,0.2s-0.3,0.1-0.4,0.1c-0.3,0.1-0.6,0.2-1,0.3c-0.3,0.1-0.7,0.3-1,0.6
	c-0.7,0.5-1.4,1.1-2.1,1.9c-1.5,1.7-2.9,3.5-4.3,5.3l-1.6,2.6c-0.2,0.3-0.3,0.6-0.5,0.9c-0.1,0.3-0.3,0.6-0.4,1s-0.2,0.7-0.4,1.1
	c-0.1,0.3-0.3,0.7-0.4,1c-0.1,0.2-0.3,0.4-0.5,0.6C99.7,38,99.7,38,99.6,38s-0.2-0.1-0.3-0.2c0.1-0.1,0.1-0.2,0-0.3
	c0-0.1-0.1-0.1-0.2-0.1c-0.3,0-0.4-0.1-0.3-0.3v-0.2c0-0.1,0-0.1,0.1-0.2c0,0,0.1-0.1,0.1-0.2v-0.1h-0.1c0,0.1-0.1,0.2-0.3,0.3v-0.1
	c0,0,0,0,0-0.1s-0.1-0.2-0.2-0.2c-0.2,0-0.3-0.1-0.2-0.3c0-0.1,0.1-0.3,0.2-0.5c0.1-0.3,0.1-0.6,0.2-1s0.1-0.7,0.3-1
	c0.2-0.6,0.4-1.2,0.6-1.8s0.4-1.1,0.5-1.7c0.2-0.5,0.4-1,0.5-1.5c0.2-0.5,0.3-1,0.4-1.4s0.2-0.7,0.3-1c0.1-0.5,0.3-1,0.6-1.5
	c0.3-0.7,0.6-1.4,0.8-2.1c0.2-0.7,0.4-1.4,0.6-2.1c0.1-0.1,0.1-0.1,0.2-0.2s0.2-0.1,0.3-0.2c0.1,0,0.1-0.1,0.1-0.1l0,0h0.1l0.7,0.2
	c0.1,0.1,0.2,0.2,0.2,0.4h0.1c0.1,0,0.3,0.1,0.3,0.2s0.1,0.2,0.1,0.3c0,0.1,0.1,0.2,0.1,0.2c0.1,0.1,0.2,0.2,0.2,0.3
	c0,0.2-0.1,0.3-0.1,0.4s0,0.2-0.1,0.3c-0.1,0.3-0.2,0.6-0.4,1c-0.2,0.4-0.4,0.8-0.6,1.3s-0.4,0.9-0.6,1.4c-0.2,0.4-0.4,0.8-0.5,1.1
	c0,0.2,0,0.4-0.1,0.4v0.1h0.2l0.4-0.3l3.1-3.9c0.4-0.4,0.8-0.7,1.3-1.1c0.5-0.3,0.9-0.6,1.4-0.9c0.4-0.2,0.8-0.3,1.1-0.3
	c0.2,0,0.5,0,0.8,0.1C112.1,21.4,112.4,21.7,112.5,22.3L112.5,22.3z M106.8,26.1c0.1-0.1,0.1-0.2,0.1-0.4c-0.2,0.2-0.4,0.4-0.5,0.6
	c-0.2,0.2-0.3,0.4-0.5,0.7c-0.1,0-0.1,0.1-0.1,0.2c-0.1,0.1-0.3,0.2-0.4,0.3c-0.1,0.1-0.2,0.3-0.3,0.5c-0.1,0.1-0.2,0.2-0.4,0.4
	c-0.1,0.1-0.2,0.3-0.3,0.5c-0.3,0.2-0.4,0.5-0.4,0.7c-0.3,0.3-0.5,0.6-0.6,0.9c-0.1,0.3-0.3,0.6-0.5,0.9v0.2h0.2
	c0.3-0.5,0.6-1.1,0.8-1.8c0.3-0.2,0.5-0.4,0.6-0.7c0.1-0.1,0.2-0.3,0.4-0.4c0.1-0.1,0.2-0.3,0.3-0.5c0.1-0.1,0.2-0.2,0.3-0.4
	c0.1-0.1,0.2-0.3,0.3-0.5c0,0,0-0.1,0.1-0.2c0.2-0.1,0.4-0.3,0.5-0.5C106.5,26.4,106.7,26.3,106.8,26.1z M103.2,29.2
	c0,0.1,0,0.1,0.1,0.2l0.1-0.1l0.1-0.1c0.3-0.4,0.6-0.8,0.9-1.2c0.3-0.4,0.6-0.8,1-1.2l0.2-0.4c0.3-0.3,0.5-0.5,0.8-0.8
	c0.2-0.3,0.5-0.5,0.7-0.8l0.2-0.3c-0.3,0.2-0.6,0.4-0.8,0.8c-0.3,0.3-0.5,0.6-0.8,0.9c0,0-0.1,0.1-0.1,0.2c-0.3,0.3-0.6,0.6-0.9,1
	c-0.3,0.3-0.5,0.7-0.8,1c-0.1,0.1-0.2,0.3-0.3,0.4C103.5,28.8,103.4,29,103.2,29.2z M107.1,25.5c0,0,0.1,0,0.1-0.1L107.1,25.5z
	 M107.4,25.3c0.1-0.1,0.1-0.1,0.1-0.2C107.5,25.2,107.4,25.2,107.4,25.3z M107.7,24c-0.1,0-0.1,0-0.1,0.1
	C107.6,24.1,107.7,24.1,107.7,24z M107.7,24.8l-0.1,0.1C107.7,24.9,107.7,24.9,107.7,24.8L107.7,24.8z M108,24.5
	c0.1-0.1,0.1-0.1,0.1-0.2C108,24.4,108,24.5,108,24.5z"/>
</svg>
