<svg xmlns="http://www.w3.org/2000/svg" viewBox="0 0 348.85 70.12"><defs><style>.cls-1{fill:#9aca3c;}.cls-2{fill:#fff;}.cls-3{fill:#008cc0;}</style></defs><title>Discover_white</title><g id="Layer_2" data-name="Layer 2"><g id="Layer_1-2" data-name="Layer 1"><path class="cls-1" d="M46.09,67.67s-1-4.1-5.89-9.45c-7.41-8.15-18.56-10.89-21.72-11.53a.79.79,0,0,1-.61-1L27.07.57A.81.81,0,0,1,28,0c2.91.54,14.23,3.1,21.88,11.57,5.69,6.29,5.9,9.45,5.9,9.45Z"/><path class="cls-2" d="M101,44.74a24.34,24.34,0,0,1-1.68,9.42,17.41,17.41,0,0,1-4.77,6.65,20.22,20.22,0,0,1-7.53,4,35.28,35.28,0,0,1-10,1.31q-2.52,0-5.88-.21a46.54,46.54,0,0,1-6.6-.87V24.52a55.14,55.14,0,0,1,6.75-.81q3.51-.21,6-.21A36.41,36.41,0,0,1,87,24.7a19.82,19.82,0,0,1,7.47,3.78,16.8,16.8,0,0,1,4.8,6.6A25,25,0,0,1,101,44.74ZM73.93,57.93c.44,0,.95.07,1.53.1s1.27,0,2.07,0c4.68,0,8.15-1.17,10.41-3.54s3.39-5.61,3.39-9.77q0-6.54-3.24-9.91T77.83,31.48l-2,0a18.71,18.71,0,0,0-1.92.15Z"/><path class="cls-2" d="M106.39,24h9.36V65.55h-9.36Z"/><path class="cls-2" d="M135.49,58.42a13,13,0,0,0,3.27-.34,5.67,5.67,0,0,0,2.07-.9,2.91,2.91,0,0,0,1.08-1.35,4.74,4.74,0,0,0,.3-1.74,4,4,0,0,0-1.92-3.38,27.37,27.37,0,0,0-6.6-2.92c-1.36-.48-2.72-1-4.08-1.65A14.47,14.47,0,0,1,126,43.8a11,11,0,0,1-2.64-3.41,10.71,10.71,0,0,1-1-4.89,12.11,12.11,0,0,1,1.08-5.19,11.2,11.2,0,0,1,3.06-3.94,14.16,14.16,0,0,1,4.8-2.48,21.55,21.55,0,0,1,6.36-.87,25.53,25.53,0,0,1,7.26.9,25.94,25.94,0,0,1,5,2l-2.7,7.38a25.57,25.57,0,0,0-3.87-1.59,16.76,16.76,0,0,0-5.13-.69,9.41,9.41,0,0,0-4.83.93,3.14,3.14,0,0,0-1.47,2.85,3.29,3.29,0,0,0,.54,1.92A5.09,5.09,0,0,0,134,38.1a12.77,12.77,0,0,0,2.28,1.15q1.29.51,2.85,1,3.24,1.2,5.64,2.37a15.28,15.28,0,0,1,4,2.72,10.05,10.05,0,0,1,2.37,3.66,14.8,14.8,0,0,1,.78,5.11,10.8,10.8,0,0,1-4.08,9c-2.72,2.15-6.82,3.21-12.3,3.21a34.08,34.08,0,0,1-5-.33,32.14,32.14,0,0,1-3.93-.81,22.63,22.63,0,0,1-2.94-1,22.14,22.14,0,0,1-2.07-1l2.64-7.43a22.92,22.92,0,0,0,11.28,2.64Z"/><path class="cls-2" d="M176.83,66.39q-10.14,0-15.45-5.64t-5.31-16a24.64,24.64,0,0,1,1.62-9.21,19.84,19.84,0,0,1,4.44-6.84,18.56,18.56,0,0,1,6.72-4.23A24.24,24.24,0,0,1,177.31,23a27.11,27.11,0,0,1,4.8.39,31.12,31.12,0,0,1,3.78.9,20,20,0,0,1,2.7,1c.72.37,1.24.65,1.56.85l-2.7,7.56A22.65,22.65,0,0,0,183,32a21.33,21.33,0,0,0-5.79-.72A12.79,12.79,0,0,0,173,32a9.57,9.57,0,0,0-3.66,2.31,11.51,11.51,0,0,0-2.55,4.11,17.22,17.22,0,0,0-1,6.11,21.79,21.79,0,0,0,.63,5.37,11.39,11.39,0,0,0,2,4.29,9.6,9.6,0,0,0,3.69,2.85,13,13,0,0,0,5.52,1.06,23.74,23.74,0,0,0,3.66-.25,22.92,22.92,0,0,0,2.88-.57,14,14,0,0,0,2.22-.75c.64-.27,1.22-.54,1.74-.77l2.58,7.5a21.59,21.59,0,0,1-5.58,2.15A32.52,32.52,0,0,1,176.83,66.39Z"/><path class="cls-2" d="M232.45,44.74a25.53,25.53,0,0,1-1.59,9.38,19.35,19.35,0,0,1-4.35,6.79,17.71,17.71,0,0,1-6.57,4.1,23.87,23.87,0,0,1-8.19,1.38,23.26,23.26,0,0,1-8-1.38,18.33,18.33,0,0,1-6.6-4.1,19.26,19.26,0,0,1-4.44-6.79,25.11,25.11,0,0,1-1.62-9.38,24.36,24.36,0,0,1,1.68-9.39,20,20,0,0,1,4.53-6.81,18.63,18.63,0,0,1,6.6-4.14A22.66,22.66,0,0,1,211.75,23a23.26,23.26,0,0,1,8,1.38,18.28,18.28,0,0,1,6.6,4.14,19.53,19.53,0,0,1,4.44,6.81A25.16,25.16,0,0,1,232.45,44.74Zm-31.74,0a18.78,18.78,0,0,0,.75,5.51,12.57,12.57,0,0,0,2.16,4.24,9.43,9.43,0,0,0,3.45,2.72,11.81,11.81,0,0,0,9.33,0,9.37,9.37,0,0,0,3.48-2.72A12.57,12.57,0,0,0,222,50.25a18.78,18.78,0,0,0,.75-5.51,19.2,19.2,0,0,0-.75-5.55,12.57,12.57,0,0,0-2.16-4.26,9.49,9.49,0,0,0-3.48-2.73,10.92,10.92,0,0,0-4.65-1,10.45,10.45,0,0,0-4.68,1A9.86,9.86,0,0,0,203.62,35a12.57,12.57,0,0,0-2.16,4.26A19,19,0,0,0,200.71,44.74Z"/><path class="cls-2" d="M250,65.55q-2.49-5.23-4.9-10.87t-4.59-11.15Q238.32,38,236.5,33t-3.15-9h10.32c.78,2.4,1.64,5,2.6,7.77s1.92,5.54,2.91,8.3,1.93,5.4,2.84,7.92,1.77,4.71,2.6,6.54c.78-1.82,1.64-4,2.56-6.52s1.89-5.17,2.87-7.92,2-5.53,2.91-8.3,1.82-5.37,2.61-7.79h10q-1.39,4-3.21,9t-4,10.55q-2.16,5.52-4.56,11.16t-4.87,10.85Z"/><path class="cls-2" d="M280.87,65.55V24H309v7.85H290.23V40h16.62v7.67H290.23v10h20.1v7.85Z"/><path class="cls-2" d="M327,23.5c6.24,0,11,1.1,14.34,3.33s5,5.67,5,10.35a11.72,11.72,0,0,1-2,7.11,13.24,13.24,0,0,1-5.79,4.29q1.26,1.56,2.64,3.56c.92,1.35,1.83,2.74,2.73,4.2s1.77,3,2.61,4.57,1.62,3.13,2.34,4.64H338.39q-1.15-2-2.32-4.13t-2.41-4.09c-.82-1.32-1.64-2.56-2.44-3.75s-1.61-2.25-2.41-3.21h-4.62V65.55h-9.36v-41a53.06,53.06,0,0,1,6.33-.84Q324.43,23.5,327,23.5Zm.54,8q-1,0-1.83.06l-1.53.12V42.93h2.64c3.52,0,6-.43,7.56-1.31a4.77,4.77,0,0,0,2.28-4.5,4.58,4.58,0,0,0-2.31-4.35A14.28,14.28,0,0,0,327.55,31.48Z"/><path class="cls-2" d="M45,70.08c.24.11.4-.06.52-.32-.8-.85-4.74-4.59-13-6.75-10.5-2.75-22.59-1.89-28-1.29l-1.3,6.5a.9.9,0,0,0,1,1.16c4.24-.8,12.35-3.17,23.63-2.63,9.82.48,15.43,2.59,17.11,3.33Z"/><path class="cls-3" d="M45.64,69.32c.07-.26.13-.52.18-.71a26.22,26.22,0,0,0-6.76-9.09c-8.35-7.62-21.71-9.33-25.66-9.66a.91.91,0,0,1-.79-1.18L20.72,8.81c-4.91-.11-8.88,0-10.34.06a1,1,0,0,0-.88.68L0,56.16A1,1,0,0,0,1,57.4c4.37-.37,19.37-1.08,30.83,2.42A25.93,25.93,0,0,1,45.64,69.32Z"/></g></g></svg>